<svg width="214" height="214" viewBox="0 0 214 214" fill="none" xmlns="http://www.w3.org/2000/svg">
<mask id="path-1-inside-1_26583_291" fill="white">
<path d="M77.04 7.59391e-05H68.48V8.56007H77.04V7.59391e-05Z"/>
<path d="M85.6 7.59391e-05H77.04V8.56007H85.6V7.59391e-05Z"/>
<path d="M94.16 7.59391e-05H85.6V8.56007H94.16V7.59391e-05Z"/>
<path d="M111.28 7.59391e-05H102.72V8.56007H111.28V7.59391e-05Z"/>
<path d="M128.4 7.59391e-05H119.84V8.56007H128.4V7.59391e-05Z"/>
<path d="M77.04 8.56007H68.48V17.1201H77.04V8.56007Z"/>
<path d="M94.16 8.56007H85.6L85.6 17.1201H94.16V8.56007Z"/>
<path d="M111.28 8.56007H102.72V17.1201H111.28V8.56007Z"/>
<path d="M119.84 8.56007H111.28V17.1201H119.84L119.84 8.56007Z"/>
<path d="M128.4 8.56007H119.84L119.84 17.1201H128.4V8.56007Z"/>
<path d="M145.52 8.56009H136.96V17.1201H145.52V8.56009Z"/>
<path d="M77.04 17.1201H68.48V25.6801H77.04V17.1201Z"/>
<path d="M94.16 17.1201H85.6V25.6801H94.16V17.1201Z"/>
<path d="M102.72 17.1201H94.16V25.6801H102.72L102.72 17.1201Z"/>
<path d="M111.28 17.1201H102.72L102.72 25.6801H111.28V17.1201Z"/>
<path d="M119.84 17.1201H111.28V25.6801H119.84V17.1201Z"/>
<path d="M145.52 17.1201H136.96V25.6801H145.52V17.1201Z"/>
<path d="M85.6 25.6801H77.04L77.04 34.24H85.6L85.6 25.6801Z"/>
<path d="M111.28 25.6801H102.72L102.72 34.24H111.28V25.6801Z"/>
<path d="M119.84 25.6801H111.28V34.24H119.84V25.6801Z"/>
<path d="M77.04 34.24L68.48 34.24V42.8H77.04L77.04 34.24Z"/>
<path d="M94.16 34.24L85.6 34.24L85.6 42.8H94.16V34.24Z"/>
<path d="M102.72 34.24L94.16 34.24V42.8H102.72L102.72 34.24Z"/>
<path d="M111.28 34.24H102.72L102.72 42.8H111.28V34.24Z"/>
<path d="M128.4 34.24L119.84 34.24L119.84 42.8H128.4V34.24Z"/>
<path d="M145.52 34.24H136.96V42.8H145.52V34.24Z"/>
<path d="M102.72 42.8H94.16L94.16 51.3601H102.72V42.8Z"/>
<path d="M128.4 42.8H119.84V51.3601H128.4V42.8Z"/>
<path d="M77.04 51.3601H68.48V59.9201H77.04V51.3601Z"/>
<path d="M94.16 51.3601L85.6 51.3601V59.9201H94.16L94.16 51.3601Z"/>
<path d="M111.28 51.3601L102.72 51.3601L102.72 59.9201H111.28V51.3601Z"/>
<path d="M128.4 51.3601H119.84V59.9201H128.4V51.3601Z"/>
<path d="M145.52 51.3601H136.96V59.9201H145.52V51.3601Z"/>
<path d="M85.6 59.9201H77.04L77.04 68.4801H85.6L85.6 59.9201Z"/>
<path d="M111.28 59.9201H102.72V68.4801H111.28V59.9201Z"/>
<path d="M119.84 59.9201H111.28V68.4801H119.84L119.84 59.9201Z"/>
<path d="M8.56007 68.48H7.59391e-05V77.04H8.56007V68.48Z"/>
<path d="M34.2401 68.48H25.6801V77.04H34.2401V68.48Z"/>
<path d="M42.8001 68.48H34.2401V77.04H42.8001V68.48Z"/>
<path d="M51.36 68.48H42.8001V77.04H51.36V68.48Z"/>
<path d="M59.92 68.48H51.36V77.04H59.92V68.48Z"/>
<path d="M68.48 68.48H59.92V77.04H68.48V68.48Z"/>
<path d="M77.04 68.4801L68.48 68.48V77.04H77.04L77.04 68.4801Z"/>
<path d="M94.16 68.48L85.6 68.4801L85.6 77.04H94.16V68.48Z"/>
<path d="M102.72 68.4801L94.16 68.48V77.04H102.72L102.72 68.4801Z"/>
<path d="M136.96 68.48H128.4V77.04H136.96V68.48Z"/>
<path d="M145.52 68.48H136.96V77.04H145.52V68.48Z"/>
<path d="M154.08 68.48H145.52V77.04H154.08V68.48Z"/>
<path d="M179.76 68.48H171.2V77.04H179.76V68.48Z"/>
<path d="M196.88 68.48H188.32V77.04H196.88V68.48Z"/>
<path d="M205.44 68.48H196.88V77.04H205.44V68.48Z"/>
<path d="M214 68.48H205.44V77.04H214V68.48Z"/>
<path d="M34.2401 77.04H25.6801V85.6H34.2401V77.04Z"/>
<path d="M42.8001 77.04H34.2401V85.6H42.8001V77.04Z"/>
<path d="M51.36 77.04H42.8001V85.6H51.36V77.04Z"/>
<path d="M77.04 77.04H68.48L68.48 85.6H77.04V77.04Z"/>
<path d="M85.6 77.04H77.04V85.6H85.6L85.6 77.04Z"/>
<path d="M94.16 77.04H85.6L85.6 85.6H94.16V77.04Z"/>
<path d="M102.72 77.04H94.16V85.6H102.72V77.04Z"/>
<path d="M119.84 77.04H111.28V85.6H119.84V77.04Z"/>
<path d="M128.4 77.04L119.84 77.04V85.6H128.4L128.4 77.04Z"/>
<path d="M136.96 77.04H128.4L128.4 85.6H136.96V77.04Z"/>
<path d="M171.2 77.04L162.64 77.04V85.6H171.2L171.2 77.04Z"/>
<path d="M179.76 77.04H171.2L171.2 85.6H179.76V77.04Z"/>
<path d="M188.32 77.04H179.76V85.6H188.32L188.32 77.04Z"/>
<path d="M196.88 77.04H188.32L188.32 85.6H196.88V77.04Z"/>
<path d="M205.44 77.04H196.88V85.6H205.44V77.04Z"/>
<path d="M8.56007 85.6001H7.59391e-05V94.16H8.56007V85.6001Z"/>
<path d="M25.6801 85.6L17.1201 85.6001V94.16H25.6801L25.6801 85.6Z"/>
<path d="M34.2401 85.6H25.6801L25.6801 94.16H34.2401V85.6Z"/>
<path d="M59.92 85.6001L51.36 85.6L51.36 94.16H59.92V85.6001Z"/>
<path d="M68.48 85.6L59.92 85.6001V94.16H68.48L68.48 85.6Z"/>
<path d="M77.04 85.6H68.48L68.48 94.16H77.04V85.6Z"/>
<path d="M102.72 85.6H94.16L94.16 94.16H102.72V85.6Z"/>
<path d="M119.84 85.6H111.28V94.16H119.84V85.6Z"/>
<path d="M136.96 85.6H128.4L128.4 94.16H136.96V85.6Z"/>
<path d="M154.08 85.6001H145.52V94.16H154.08V85.6001Z"/>
<path d="M162.64 85.6L154.08 85.6001V94.16H162.64L162.64 85.6Z"/>
<path d="M188.32 85.6H179.76L179.76 94.16H188.32V85.6Z"/>
<path d="M214 85.6001L205.44 85.6L205.44 94.16H214V85.6001Z"/>
<path d="M17.1201 94.16H8.56007L8.56009 102.72H17.1201L17.1201 94.16Z"/>
<path d="M25.6801 94.16H17.1201L17.1201 102.72H25.6801V94.16Z"/>
<path d="M34.2401 94.16H25.6801V102.72H34.2401V94.16Z"/>
<path d="M111.28 94.16H102.72L102.72 102.72H111.28L111.28 94.16Z"/>
<path d="M136.96 94.16H128.4V102.72H136.96V94.16Z"/>
<path d="M145.52 94.16H136.96V102.72H145.52L145.52 94.16Z"/>
<path d="M162.64 94.16H154.08L154.08 102.72H162.64V94.16Z"/>
<path d="M171.2 94.1601L162.64 94.16V102.72H171.2V94.1601Z"/>
<path d="M179.76 94.16L171.2 94.1601V102.72H179.76L179.76 94.16Z"/>
<path d="M188.32 94.16H179.76L179.76 102.72H188.32V94.16Z"/>
<path d="M196.88 94.1601L188.32 94.16V102.72H196.88V94.1601Z"/>
<path d="M205.44 94.16L196.88 94.1601V102.72H205.44L205.44 94.16Z"/>
<path d="M214 94.16H205.44L205.44 102.72H214V94.16Z"/>
<path d="M17.1201 102.72H8.56009V111.28H17.1201V102.72Z"/>
<path d="M42.8001 102.72L34.2401 102.72L34.2401 111.28H42.8001V102.72Z"/>
<path d="M51.36 102.72H42.8001V111.28H51.36V102.72Z"/>
<path d="M59.92 102.72H51.36V111.28H59.92V102.72Z"/>
<path d="M77.04 102.72H68.48V111.28H77.04V102.72Z"/>
<path d="M85.6 102.72H77.04V111.28H85.6V102.72Z"/>
<path d="M94.16 102.72H85.6V111.28H94.16V102.72Z"/>
<path d="M136.96 102.72H128.4V111.28H136.96V102.72Z"/>
<path d="M162.64 102.72H154.08V111.28H162.64V102.72Z"/>
<path d="M171.2 102.72H162.64V111.28H171.2V102.72Z"/>
<path d="M214 102.72H205.44L205.44 111.28H214V102.72Z"/>
<path d="M8.56009 111.28L7.59391e-05 111.28V119.84H8.56007L8.56009 111.28Z"/>
<path d="M17.1201 111.28H8.56009L8.56007 119.84H17.1201V111.28Z"/>
<path d="M25.6801 111.28L17.1201 111.28V119.84H25.6801V111.28Z"/>
<path d="M34.2401 111.28L25.6801 111.28V119.84H34.2401L34.2401 111.28Z"/>
<path d="M42.8001 111.28H34.2401L34.2401 119.84H42.8001V111.28Z"/>
<path d="M68.48 111.28H59.92L59.92 119.84H68.48L68.48 111.28Z"/>
<path d="M94.16 111.28H85.6L85.6 119.84H94.16V111.28Z"/>
<path d="M111.28 111.28H102.72V119.84H111.28V111.28Z"/>
<path d="M119.84 111.28H111.28V119.84H119.84V111.28Z"/>
<path d="M128.4 111.28L119.84 111.28V119.84H128.4L128.4 111.28Z"/>
<path d="M136.96 111.28H128.4L128.4 119.84H136.96V111.28Z"/>
<path d="M145.52 111.28L136.96 111.28V119.84H145.52V111.28Z"/>
<path d="M154.08 111.28L145.52 111.28V119.84H154.08L154.08 111.28Z"/>
<path d="M179.76 111.28L171.2 111.28L171.2 119.84H179.76V111.28Z"/>
<path d="M205.44 111.28L196.88 111.28V119.84H205.44L205.44 111.28Z"/>
<path d="M8.56007 119.84H7.59391e-05V128.4H8.56007V119.84Z"/>
<path d="M17.1201 119.84H8.56007V128.4H17.1201V119.84Z"/>
<path d="M25.6801 119.84H17.1201V128.4H25.6801V119.84Z"/>
<path d="M51.36 119.84L42.8001 119.84L42.8 128.4H51.36V119.84Z"/>
<path d="M59.92 119.84L51.36 119.84V128.4H59.92L59.92 119.84Z"/>
<path d="M68.48 119.84H59.92L59.92 128.4H68.48V119.84Z"/>
<path d="M136.96 119.84H128.4L128.4 128.4H136.96V119.84Z"/>
<path d="M162.64 119.84L154.08 119.84L154.08 128.4H162.64V119.84Z"/>
<path d="M179.76 119.84H171.2V128.4H179.76V119.84Z"/>
<path d="M188.32 119.84L179.76 119.84V128.4H188.32V119.84Z"/>
<path d="M196.88 119.84L188.32 119.84V128.4H196.88L196.88 119.84Z"/>
<path d="M205.44 119.84H196.88L196.88 128.4H205.44V119.84Z"/>
<path d="M214 119.84L205.44 119.84V128.4H214V119.84Z"/>
<path d="M8.56007 128.4H7.59391e-05V136.96H8.56007V128.4Z"/>
<path d="M34.2401 128.4L25.6801 128.4L25.6801 136.96H34.2401V128.4Z"/>
<path d="M51.36 128.4H42.8V136.96H51.36V128.4Z"/>
<path d="M68.48 128.4H59.92L59.92 136.96H68.48V128.4Z"/>
<path d="M94.16 128.4H85.6V136.96H94.16V128.4Z"/>
<path d="M111.28 128.4H102.72V136.96H111.28V128.4Z"/>
<path d="M136.96 128.4H128.4V136.96H136.96V128.4Z"/>
<path d="M145.52 128.4L136.96 128.4V136.96H145.52V128.4Z"/>
<path d="M154.08 128.4L145.52 128.4V136.96H154.08L154.08 128.4Z"/>
<path d="M171.2 128.4H162.64L162.64 136.96H171.2L171.2 128.4Z"/>
<path d="M188.32 128.4H179.76L179.76 136.96H188.32V128.4Z"/>
<path d="M196.88 128.4H188.32V136.96H196.88V128.4Z"/>
<path d="M214 128.4H205.44L205.44 136.96H214V128.4Z"/>
<path d="M8.56007 136.96H7.59391e-05V145.52H8.56007V136.96Z"/>
<path d="M25.6801 136.96L17.1201 136.96V145.52H25.6801L25.6801 136.96Z"/>
<path d="M34.2401 136.96H25.6801L25.6801 145.52H34.2401V136.96Z"/>
<path d="M42.8 136.96H34.2401V145.52H42.8001L42.8 136.96Z"/>
<path d="M59.92 136.96H51.36L51.36 145.52H59.92L59.92 136.96Z"/>
<path d="M68.48 136.96H59.92L59.92 145.52H68.48V136.96Z"/>
<path d="M77.04 136.96L68.48 136.96V145.52H77.04V136.96Z"/>
<path d="M102.72 136.96H94.16L94.16 145.52H102.72L102.72 136.96Z"/>
<path d="M111.28 136.96H102.72L102.72 145.52H111.28V136.96Z"/>
<path d="M119.84 136.96L111.28 136.96V145.52H119.84V136.96Z"/>
<path d="M145.52 136.96H136.96L136.96 145.52H145.52V136.96Z"/>
<path d="M154.08 136.96H145.52V145.52H154.08V136.96Z"/>
<path d="M162.64 136.96H154.08V145.52H162.64L162.64 136.96Z"/>
<path d="M171.2 136.96H162.64L162.64 145.52H171.2V136.96Z"/>
<path d="M179.76 136.96H171.2V145.52H179.76L179.76 136.96Z"/>
<path d="M196.88 136.96H188.32L188.32 145.52H196.88V136.96Z"/>
<path d="M205.44 136.96H196.88V145.52H205.44L205.44 136.96Z"/>
<path d="M77.04 145.52H68.48L68.48 154.08H77.04V145.52Z"/>
<path d="M94.16 145.52L85.6 145.52V154.08H94.16L94.16 145.52Z"/>
<path d="M102.72 145.52H94.16L94.16 154.08H102.72V145.52Z"/>
<path d="M119.84 145.52H111.28L111.28 154.08H119.84V145.52Z"/>
<path d="M145.52 145.52H136.96V154.08H145.52V145.52Z"/>
<path d="M179.76 145.52H171.2L171.2 154.08H179.76V145.52Z"/>
<path d="M196.88 145.52H188.32V154.08H196.88V145.52Z"/>
<path d="M205.44 145.52H196.88V154.08H205.44V145.52Z"/>
<path d="M77.04 154.08H68.48V162.64H77.04V154.08Z"/>
<path d="M85.6 154.08H77.04V162.64H85.6L85.6 154.08Z"/>
<path d="M111.28 154.08H102.72L102.72 162.64H111.28L111.28 154.08Z"/>
<path d="M145.52 154.08H136.96V162.64H145.52V154.08Z"/>
<path d="M162.64 154.08H154.08V162.64H162.64V154.08Z"/>
<path d="M179.76 154.08H171.2V162.64H179.76V154.08Z"/>
<path d="M214 154.08L205.44 154.08L205.44 162.64H214V154.08Z"/>
<path d="M77.04 162.64H68.48V171.2H77.04V162.64Z"/>
<path d="M85.6 162.64H77.04V171.2H85.6V162.64Z"/>
<path d="M94.16 162.64L85.6 162.64V171.2H94.16V162.64Z"/>
<path d="M102.72 162.64L94.16 162.64V171.2H102.72L102.72 162.64Z"/>
<path d="M119.84 162.64L111.28 162.64L111.28 171.2H119.84V162.64Z"/>
<path d="M136.96 162.64L128.4 162.64V171.2H136.96L136.96 162.64Z"/>
<path d="M145.52 162.64H136.96L136.96 171.2H145.52V162.64Z"/>
<path d="M179.76 162.64H171.2V171.2H179.76V162.64Z"/>
<path d="M214 162.64H205.44V171.2H214V162.64Z"/>
<path d="M77.04 171.2H68.48V179.76H77.04V171.2Z"/>
<path d="M85.6 171.2H77.04V179.76H85.6V171.2Z"/>
<path d="M94.16 171.2H85.6V179.76H94.16V171.2Z"/>
<path d="M102.72 171.2H94.16V179.76H102.72V171.2Z"/>
<path d="M111.28 171.2H102.72V179.76H111.28L111.28 171.2Z"/>
<path d="M128.4 171.2H119.84L119.84 179.76H128.4L128.4 171.2Z"/>
<path d="M136.96 171.2H128.4L128.4 179.76H136.96V171.2Z"/>
<path d="M145.52 171.2H136.96V179.76H145.52V171.2Z"/>
<path d="M154.08 171.2L145.52 171.2V179.76H154.08V171.2Z"/>
<path d="M162.64 171.2H154.08V179.76H162.64V171.2Z"/>
<path d="M171.2 171.2L162.64 171.2V179.76H171.2L171.2 171.2Z"/>
<path d="M179.76 171.2H171.2L171.2 179.76H179.76V171.2Z"/>
<path d="M77.04 179.76H68.48V188.32H77.04V179.76Z"/>
<path d="M85.6 179.76H77.04V188.32H85.6V179.76Z"/>
<path d="M111.28 179.76H102.72L102.72 188.32H111.28V179.76Z"/>
<path d="M119.84 179.76H111.28V188.32H119.84L119.84 179.76Z"/>
<path d="M128.4 179.76H119.84L119.84 188.32H128.4V179.76Z"/>
<path d="M136.96 179.76H128.4V188.32H136.96V179.76Z"/>
<path d="M145.52 179.76H136.96V188.32H145.52V179.76Z"/>
<path d="M154.08 179.76H145.52V188.32H154.08V179.76Z"/>
<path d="M162.64 179.76H154.08V188.32H162.64V179.76Z"/>
<path d="M205.44 179.76H196.88V188.32H205.44V179.76Z"/>
<path d="M214 179.76H205.44V188.32H214V179.76Z"/>
<path d="M85.6 188.32H77.04L77.04 196.88H85.6V188.32Z"/>
<path d="M102.72 188.32L94.16 188.32V196.88H102.72L102.72 188.32Z"/>
<path d="M154.08 188.32H145.52L145.52 196.88H154.08V188.32Z"/>
<path d="M179.76 188.32H171.2V196.88H179.76V188.32Z"/>
<path d="M188.32 188.32H179.76V196.88H188.32V188.32Z"/>
<path d="M196.88 188.32L188.32 188.32V196.88H196.88L196.88 188.32Z"/>
<path d="M205.44 188.32H196.88L196.88 196.88H205.44V188.32Z"/>
<path d="M214 188.32H205.44V196.88H214V188.32Z"/>
<path d="M85.6 196.88H77.04V205.44H85.6V196.88Z"/>
<path d="M128.4 196.88H119.84V205.44H128.4V196.88Z"/>
<path d="M154.08 196.88H145.52V205.44H154.08V196.88Z"/>
<path d="M171.2 196.88L162.64 196.88V205.44H171.2L171.2 196.88Z"/>
<path d="M179.76 196.88H171.2L171.2 205.44H179.76V196.88Z"/>
<path d="M196.88 196.88H188.32L188.32 205.44H196.88V196.88Z"/>
<path d="M205.44 196.88H196.88V205.44H205.44V196.88Z"/>
<path d="M214 196.88H205.44V205.44H214V196.88Z"/>
<path d="M77.04 205.44L68.48 205.44V214H77.04L77.04 205.44Z"/>
<path d="M85.6 205.44H77.04L77.04 214H85.6V205.44Z"/>
<path d="M94.16 205.44L85.6 205.44V214H94.16V205.44Z"/>
<path d="M111.28 205.44H102.72V214H111.28V205.44Z"/>
<path d="M128.4 205.44H119.84V214H128.4V205.44Z"/>
<path d="M145.52 205.44L136.96 205.44V214H145.52L145.52 205.44Z"/>
<path d="M154.08 205.44H145.52L145.52 214H154.08V205.44Z"/>
<path d="M162.64 205.44H154.08V214H162.64L162.64 205.44Z"/>
<path d="M188.32 205.44H179.76L179.76 214H188.32L188.32 205.44Z"/>
<path d="M214 205.44H205.44L205.44 214H214V205.44Z"/>
<path d="M50.932 8.98803H8.98803V50.932H50.932V8.98803Z"/>
<path d="M0 0V59.92H59.92V0H0ZM50.932 50.932H8.98803V8.98803H50.932V50.932Z"/>
<path d="M205.012 8.98801H163.068V50.932H205.012V8.98801Z"/>
<path d="M154.08 7.59391e-05V59.9201H214V7.59391e-05H154.08ZM205.012 50.932H163.068V8.98801H205.012V50.932Z"/>
<path d="M50.9321 163.068H8.9881V205.012H50.9321V163.068Z"/>
<path d="M7.59391e-05 154.08V214H59.92V154.08H7.59391e-05ZM50.9321 205.012H8.9881V163.068H50.9321V205.012Z"/>
<path d="M42.8001 17.1201H17.1201V42.8001H42.8001V17.1201Z"/>
<path d="M196.88 17.1201H171.2V42.8001H196.88V17.1201Z"/>
<path d="M42.8001 171.2H17.1201V196.88H42.8001V171.2Z"/>
</mask>
<path d="M77.04 7.59391e-05H68.48V8.56007H77.04V7.59391e-05Z" fill="black"/>
<path d="M85.6 7.59391e-05H77.04V8.56007H85.6V7.59391e-05Z" fill="black"/>
<path d="M94.16 7.59391e-05H85.6V8.56007H94.16V7.59391e-05Z" fill="black"/>
<path d="M111.28 7.59391e-05H102.72V8.56007H111.28V7.59391e-05Z" fill="black"/>
<path d="M128.4 7.59391e-05H119.84V8.56007H128.4V7.59391e-05Z" fill="black"/>
<path d="M77.04 8.56007H68.48V17.1201H77.04V8.56007Z" fill="black"/>
<path d="M94.16 8.56007H85.6L85.6 17.1201H94.16V8.56007Z" fill="black"/>
<path d="M111.28 8.56007H102.72V17.1201H111.28V8.56007Z" fill="black"/>
<path d="M119.84 8.56007H111.28V17.1201H119.84L119.84 8.56007Z" fill="black"/>
<path d="M128.4 8.56007H119.84L119.84 17.1201H128.4V8.56007Z" fill="black"/>
<path d="M145.52 8.56009H136.96V17.1201H145.52V8.56009Z" fill="black"/>
<path d="M77.04 17.1201H68.48V25.6801H77.04V17.1201Z" fill="black"/>
<path d="M94.16 17.1201H85.6V25.6801H94.16V17.1201Z" fill="black"/>
<path d="M102.72 17.1201H94.16V25.6801H102.72L102.72 17.1201Z" fill="black"/>
<path d="M111.28 17.1201H102.72L102.72 25.6801H111.28V17.1201Z" fill="black"/>
<path d="M119.84 17.1201H111.28V25.6801H119.84V17.1201Z" fill="black"/>
<path d="M145.52 17.1201H136.96V25.6801H145.52V17.1201Z" fill="black"/>
<path d="M85.6 25.6801H77.04L77.04 34.24H85.6L85.6 25.6801Z" fill="black"/>
<path d="M111.28 25.6801H102.72L102.72 34.24H111.28V25.6801Z" fill="black"/>
<path d="M119.84 25.6801H111.28V34.24H119.84V25.6801Z" fill="black"/>
<path d="M77.04 34.24L68.48 34.24V42.8H77.04L77.04 34.24Z" fill="black"/>
<path d="M94.16 34.24L85.6 34.24L85.6 42.8H94.16V34.24Z" fill="black"/>
<path d="M102.72 34.24L94.16 34.24V42.8H102.72L102.72 34.24Z" fill="black"/>
<path d="M111.28 34.24H102.72L102.72 42.8H111.28V34.24Z" fill="black"/>
<path d="M128.4 34.24L119.84 34.24L119.84 42.8H128.4V34.24Z" fill="black"/>
<path d="M145.52 34.24H136.96V42.8H145.52V34.24Z" fill="black"/>
<path d="M102.72 42.8H94.16L94.16 51.3601H102.72V42.8Z" fill="black"/>
<path d="M128.4 42.8H119.84V51.3601H128.4V42.8Z" fill="black"/>
<path d="M77.04 51.3601H68.48V59.9201H77.04V51.3601Z" fill="black"/>
<path d="M94.16 51.3601L85.6 51.3601V59.9201H94.16L94.16 51.3601Z" fill="black"/>
<path d="M111.28 51.3601L102.72 51.3601L102.72 59.9201H111.28V51.3601Z" fill="black"/>
<path d="M128.4 51.3601H119.84V59.9201H128.4V51.3601Z" fill="black"/>
<path d="M145.52 51.3601H136.96V59.9201H145.52V51.3601Z" fill="black"/>
<path d="M85.6 59.9201H77.04L77.04 68.4801H85.6L85.6 59.9201Z" fill="black"/>
<path d="M111.28 59.9201H102.72V68.4801H111.28V59.9201Z" fill="black"/>
<path d="M119.84 59.9201H111.28V68.4801H119.84L119.84 59.9201Z" fill="black"/>
<path d="M8.56007 68.48H7.59391e-05V77.04H8.56007V68.48Z" fill="black"/>
<path d="M34.2401 68.48H25.6801V77.04H34.2401V68.48Z" fill="black"/>
<path d="M42.8001 68.48H34.2401V77.04H42.8001V68.48Z" fill="black"/>
<path d="M51.36 68.48H42.8001V77.04H51.36V68.48Z" fill="black"/>
<path d="M59.92 68.48H51.36V77.04H59.92V68.48Z" fill="black"/>
<path d="M68.48 68.48H59.92V77.04H68.48V68.48Z" fill="black"/>
<path d="M77.04 68.4801L68.48 68.48V77.04H77.04L77.04 68.4801Z" fill="black"/>
<path d="M94.16 68.48L85.6 68.4801L85.6 77.04H94.16V68.48Z" fill="black"/>
<path d="M102.72 68.4801L94.16 68.48V77.04H102.72L102.72 68.4801Z" fill="black"/>
<path d="M136.96 68.48H128.4V77.04H136.96V68.48Z" fill="black"/>
<path d="M145.52 68.48H136.96V77.04H145.52V68.48Z" fill="black"/>
<path d="M154.08 68.48H145.52V77.04H154.08V68.48Z" fill="black"/>
<path d="M179.76 68.48H171.2V77.04H179.76V68.48Z" fill="black"/>
<path d="M196.88 68.48H188.32V77.04H196.88V68.48Z" fill="black"/>
<path d="M205.44 68.48H196.88V77.04H205.44V68.48Z" fill="black"/>
<path d="M214 68.48H205.44V77.04H214V68.48Z" fill="black"/>
<path d="M34.2401 77.04H25.6801V85.6H34.2401V77.04Z" fill="black"/>
<path d="M42.8001 77.04H34.2401V85.6H42.8001V77.04Z" fill="black"/>
<path d="M51.36 77.04H42.8001V85.6H51.36V77.04Z" fill="black"/>
<path d="M77.04 77.04H68.48L68.48 85.6H77.04V77.04Z" fill="black"/>
<path d="M85.6 77.04H77.04V85.6H85.6L85.6 77.04Z" fill="black"/>
<path d="M94.16 77.04H85.6L85.6 85.6H94.16V77.04Z" fill="black"/>
<path d="M102.72 77.04H94.16V85.6H102.72V77.04Z" fill="black"/>
<path d="M119.84 77.04H111.28V85.6H119.84V77.04Z" fill="black"/>
<path d="M128.4 77.04L119.84 77.04V85.6H128.4L128.4 77.04Z" fill="black"/>
<path d="M136.96 77.04H128.4L128.4 85.6H136.96V77.04Z" fill="black"/>
<path d="M171.2 77.04L162.64 77.04V85.6H171.2L171.2 77.04Z" fill="black"/>
<path d="M179.76 77.04H171.2L171.2 85.6H179.76V77.04Z" fill="black"/>
<path d="M188.32 77.04H179.76V85.6H188.32L188.32 77.04Z" fill="black"/>
<path d="M196.88 77.04H188.32L188.32 85.6H196.88V77.04Z" fill="black"/>
<path d="M205.44 77.04H196.88V85.6H205.44V77.04Z" fill="black"/>
<path d="M8.56007 85.6001H7.59391e-05V94.16H8.56007V85.6001Z" fill="black"/>
<path d="M25.6801 85.6L17.1201 85.6001V94.16H25.6801L25.6801 85.6Z" fill="black"/>
<path d="M34.2401 85.6H25.6801L25.6801 94.16H34.2401V85.6Z" fill="black"/>
<path d="M59.92 85.6001L51.36 85.6L51.36 94.16H59.92V85.6001Z" fill="black"/>
<path d="M68.48 85.6L59.92 85.6001V94.16H68.48L68.48 85.6Z" fill="black"/>
<path d="M77.04 85.6H68.48L68.48 94.16H77.04V85.6Z" fill="black"/>
<path d="M102.72 85.6H94.16L94.16 94.16H102.72V85.6Z" fill="black"/>
<path d="M119.84 85.6H111.28V94.16H119.84V85.6Z" fill="black"/>
<path d="M136.96 85.6H128.4L128.4 94.16H136.96V85.6Z" fill="black"/>
<path d="M154.08 85.6001H145.52V94.16H154.08V85.6001Z" fill="black"/>
<path d="M162.64 85.6L154.08 85.6001V94.16H162.64L162.64 85.6Z" fill="black"/>
<path d="M188.32 85.6H179.76L179.76 94.16H188.32V85.6Z" fill="black"/>
<path d="M214 85.6001L205.44 85.6L205.44 94.16H214V85.6001Z" fill="black"/>
<path d="M17.1201 94.16H8.56007L8.56009 102.72H17.1201L17.1201 94.16Z" fill="black"/>
<path d="M25.6801 94.16H17.1201L17.1201 102.72H25.6801V94.16Z" fill="black"/>
<path d="M34.2401 94.16H25.6801V102.72H34.2401V94.16Z" fill="black"/>
<path d="M111.28 94.16H102.72L102.72 102.72H111.28L111.28 94.16Z" fill="black"/>
<path d="M136.96 94.16H128.4V102.72H136.96V94.16Z" fill="black"/>
<path d="M145.52 94.16H136.96V102.72H145.52L145.52 94.16Z" fill="black"/>
<path d="M162.64 94.16H154.08L154.08 102.72H162.64V94.16Z" fill="black"/>
<path d="M171.2 94.1601L162.64 94.16V102.72H171.2V94.1601Z" fill="black"/>
<path d="M179.76 94.16L171.2 94.1601V102.72H179.76L179.76 94.16Z" fill="black"/>
<path d="M188.32 94.16H179.76L179.76 102.72H188.32V94.16Z" fill="black"/>
<path d="M196.88 94.1601L188.32 94.16V102.72H196.88V94.1601Z" fill="black"/>
<path d="M205.44 94.16L196.88 94.1601V102.72H205.44L205.44 94.16Z" fill="black"/>
<path d="M214 94.16H205.44L205.44 102.72H214V94.16Z" fill="black"/>
<path d="M17.1201 102.72H8.56009V111.28H17.1201V102.72Z" fill="black"/>
<path d="M42.8001 102.72L34.2401 102.72L34.2401 111.28H42.8001V102.72Z" fill="black"/>
<path d="M51.36 102.72H42.8001V111.28H51.36V102.72Z" fill="black"/>
<path d="M59.92 102.72H51.36V111.28H59.92V102.72Z" fill="black"/>
<path d="M77.04 102.72H68.48V111.28H77.04V102.72Z" fill="black"/>
<path d="M85.6 102.72H77.04V111.28H85.6V102.72Z" fill="black"/>
<path d="M94.16 102.72H85.6V111.28H94.16V102.72Z" fill="black"/>
<path d="M136.96 102.72H128.4V111.28H136.96V102.72Z" fill="black"/>
<path d="M162.64 102.72H154.08V111.28H162.64V102.72Z" fill="black"/>
<path d="M171.2 102.72H162.64V111.28H171.2V102.72Z" fill="black"/>
<path d="M214 102.72H205.44L205.44 111.28H214V102.72Z" fill="black"/>
<path d="M8.56009 111.28L7.59391e-05 111.28V119.84H8.56007L8.56009 111.28Z" fill="black"/>
<path d="M17.1201 111.28H8.56009L8.56007 119.84H17.1201V111.28Z" fill="black"/>
<path d="M25.6801 111.28L17.1201 111.28V119.84H25.6801V111.28Z" fill="black"/>
<path d="M34.2401 111.28L25.6801 111.28V119.84H34.2401L34.2401 111.28Z" fill="black"/>
<path d="M42.8001 111.28H34.2401L34.2401 119.84H42.8001V111.28Z" fill="black"/>
<path d="M68.48 111.28H59.92L59.92 119.84H68.48L68.48 111.28Z" fill="black"/>
<path d="M94.16 111.28H85.6L85.6 119.84H94.16V111.28Z" fill="black"/>
<path d="M111.28 111.28H102.72V119.84H111.28V111.28Z" fill="black"/>
<path d="M119.84 111.28H111.28V119.84H119.84V111.28Z" fill="black"/>
<path d="M128.4 111.28L119.84 111.28V119.84H128.4L128.4 111.28Z" fill="black"/>
<path d="M136.96 111.28H128.4L128.4 119.84H136.96V111.28Z" fill="black"/>
<path d="M145.52 111.28L136.96 111.28V119.84H145.52V111.28Z" fill="black"/>
<path d="M154.08 111.28L145.52 111.28V119.84H154.08L154.08 111.28Z" fill="black"/>
<path d="M179.76 111.28L171.2 111.28L171.2 119.84H179.76V111.28Z" fill="black"/>
<path d="M205.44 111.28L196.88 111.28V119.84H205.44L205.44 111.28Z" fill="black"/>
<path d="M8.56007 119.84H7.59391e-05V128.4H8.56007V119.84Z" fill="black"/>
<path d="M17.1201 119.84H8.56007V128.4H17.1201V119.84Z" fill="black"/>
<path d="M25.6801 119.84H17.1201V128.4H25.6801V119.84Z" fill="black"/>
<path d="M51.36 119.84L42.8001 119.84L42.8 128.4H51.36V119.84Z" fill="black"/>
<path d="M59.92 119.84L51.36 119.84V128.4H59.92L59.92 119.84Z" fill="black"/>
<path d="M68.48 119.84H59.92L59.92 128.4H68.48V119.84Z" fill="black"/>
<path d="M136.96 119.84H128.4L128.4 128.4H136.96V119.84Z" fill="black"/>
<path d="M162.64 119.84L154.08 119.84L154.08 128.4H162.64V119.84Z" fill="black"/>
<path d="M179.76 119.84H171.2V128.4H179.76V119.84Z" fill="black"/>
<path d="M188.32 119.84L179.76 119.84V128.4H188.32V119.84Z" fill="black"/>
<path d="M196.88 119.84L188.32 119.84V128.4H196.88L196.88 119.84Z" fill="black"/>
<path d="M205.44 119.84H196.88L196.88 128.4H205.44V119.84Z" fill="black"/>
<path d="M214 119.84L205.44 119.84V128.4H214V119.84Z" fill="black"/>
<path d="M8.56007 128.4H7.59391e-05V136.96H8.56007V128.4Z" fill="black"/>
<path d="M34.2401 128.4L25.6801 128.4L25.6801 136.96H34.2401V128.4Z" fill="black"/>
<path d="M51.36 128.4H42.8V136.96H51.36V128.4Z" fill="black"/>
<path d="M68.48 128.4H59.92L59.92 136.96H68.48V128.4Z" fill="black"/>
<path d="M94.16 128.4H85.6V136.96H94.16V128.4Z" fill="black"/>
<path d="M111.28 128.4H102.72V136.96H111.28V128.4Z" fill="black"/>
<path d="M136.96 128.4H128.4V136.96H136.96V128.4Z" fill="black"/>
<path d="M145.52 128.4L136.96 128.4V136.96H145.52V128.4Z" fill="black"/>
<path d="M154.08 128.4L145.52 128.4V136.96H154.08L154.08 128.4Z" fill="black"/>
<path d="M171.2 128.4H162.64L162.64 136.96H171.2L171.2 128.4Z" fill="black"/>
<path d="M188.32 128.4H179.76L179.76 136.96H188.32V128.4Z" fill="black"/>
<path d="M196.88 128.4H188.32V136.96H196.88V128.4Z" fill="black"/>
<path d="M214 128.4H205.44L205.44 136.96H214V128.4Z" fill="black"/>
<path d="M8.56007 136.96H7.59391e-05V145.52H8.56007V136.96Z" fill="black"/>
<path d="M25.6801 136.96L17.1201 136.96V145.52H25.6801L25.6801 136.96Z" fill="black"/>
<path d="M34.2401 136.96H25.6801L25.6801 145.52H34.2401V136.96Z" fill="black"/>
<path d="M42.8 136.96H34.2401V145.52H42.8001L42.8 136.96Z" fill="black"/>
<path d="M59.92 136.96H51.36L51.36 145.52H59.92L59.92 136.96Z" fill="black"/>
<path d="M68.48 136.96H59.92L59.92 145.52H68.48V136.96Z" fill="black"/>
<path d="M77.04 136.96L68.48 136.96V145.52H77.04V136.96Z" fill="black"/>
<path d="M102.72 136.96H94.16L94.16 145.52H102.72L102.72 136.96Z" fill="black"/>
<path d="M111.28 136.96H102.72L102.72 145.52H111.28V136.96Z" fill="black"/>
<path d="M119.84 136.96L111.28 136.96V145.52H119.84V136.96Z" fill="black"/>
<path d="M145.52 136.96H136.96L136.96 145.52H145.52V136.96Z" fill="black"/>
<path d="M154.08 136.96H145.52V145.52H154.08V136.96Z" fill="black"/>
<path d="M162.64 136.96H154.08V145.52H162.64L162.64 136.96Z" fill="black"/>
<path d="M171.2 136.96H162.64L162.64 145.52H171.2V136.96Z" fill="black"/>
<path d="M179.76 136.96H171.2V145.52H179.76L179.76 136.96Z" fill="black"/>
<path d="M196.88 136.96H188.32L188.32 145.52H196.88V136.96Z" fill="black"/>
<path d="M205.44 136.96H196.88V145.52H205.44L205.44 136.96Z" fill="black"/>
<path d="M77.04 145.52H68.48L68.48 154.08H77.04V145.52Z" fill="black"/>
<path d="M94.16 145.52L85.6 145.52V154.08H94.16L94.16 145.52Z" fill="black"/>
<path d="M102.72 145.52H94.16L94.16 154.08H102.72V145.52Z" fill="black"/>
<path d="M119.84 145.52H111.28L111.28 154.08H119.84V145.52Z" fill="black"/>
<path d="M145.52 145.52H136.96V154.08H145.52V145.52Z" fill="black"/>
<path d="M179.76 145.52H171.2L171.2 154.08H179.76V145.52Z" fill="black"/>
<path d="M196.88 145.52H188.32V154.08H196.88V145.52Z" fill="black"/>
<path d="M205.44 145.52H196.88V154.08H205.44V145.52Z" fill="black"/>
<path d="M77.04 154.08H68.48V162.64H77.04V154.08Z" fill="black"/>
<path d="M85.6 154.08H77.04V162.64H85.6L85.6 154.08Z" fill="black"/>
<path d="M111.28 154.08H102.72L102.72 162.64H111.28L111.28 154.08Z" fill="black"/>
<path d="M145.52 154.08H136.96V162.64H145.52V154.08Z" fill="black"/>
<path d="M162.64 154.08H154.08V162.64H162.64V154.08Z" fill="black"/>
<path d="M179.76 154.08H171.2V162.64H179.76V154.08Z" fill="black"/>
<path d="M214 154.08L205.44 154.08L205.44 162.64H214V154.08Z" fill="black"/>
<path d="M77.04 162.64H68.48V171.2H77.04V162.64Z" fill="black"/>
<path d="M85.6 162.64H77.04V171.2H85.6V162.64Z" fill="black"/>
<path d="M94.16 162.64L85.6 162.64V171.2H94.16V162.64Z" fill="black"/>
<path d="M102.72 162.64L94.16 162.64V171.2H102.72L102.72 162.64Z" fill="black"/>
<path d="M119.84 162.64L111.28 162.64L111.28 171.2H119.84V162.64Z" fill="black"/>
<path d="M136.96 162.64L128.4 162.64V171.2H136.96L136.96 162.64Z" fill="black"/>
<path d="M145.52 162.64H136.96L136.96 171.2H145.52V162.64Z" fill="black"/>
<path d="M179.76 162.64H171.2V171.2H179.76V162.64Z" fill="black"/>
<path d="M214 162.64H205.44V171.2H214V162.64Z" fill="black"/>
<path d="M77.04 171.2H68.48V179.76H77.04V171.2Z" fill="black"/>
<path d="M85.6 171.2H77.04V179.76H85.6V171.2Z" fill="black"/>
<path d="M94.16 171.2H85.6V179.76H94.16V171.2Z" fill="black"/>
<path d="M102.72 171.2H94.16V179.76H102.72V171.2Z" fill="black"/>
<path d="M111.28 171.2H102.72V179.76H111.28L111.28 171.2Z" fill="black"/>
<path d="M128.4 171.2H119.84L119.84 179.76H128.4L128.4 171.2Z" fill="black"/>
<path d="M136.96 171.2H128.4L128.4 179.76H136.96V171.2Z" fill="black"/>
<path d="M145.52 171.2H136.96V179.76H145.52V171.2Z" fill="black"/>
<path d="M154.08 171.2L145.52 171.2V179.76H154.08V171.2Z" fill="black"/>
<path d="M162.64 171.2H154.08V179.76H162.64V171.2Z" fill="black"/>
<path d="M171.2 171.2L162.64 171.2V179.76H171.2L171.2 171.2Z" fill="black"/>
<path d="M179.76 171.2H171.2L171.2 179.76H179.76V171.2Z" fill="black"/>
<path d="M77.04 179.76H68.48V188.32H77.04V179.76Z" fill="black"/>
<path d="M85.6 179.76H77.04V188.32H85.6V179.76Z" fill="black"/>
<path d="M111.28 179.76H102.72L102.72 188.32H111.28V179.76Z" fill="black"/>
<path d="M119.84 179.76H111.28V188.32H119.84L119.84 179.76Z" fill="black"/>
<path d="M128.4 179.76H119.84L119.84 188.32H128.4V179.76Z" fill="black"/>
<path d="M136.96 179.76H128.4V188.32H136.96V179.76Z" fill="black"/>
<path d="M145.52 179.76H136.96V188.32H145.52V179.76Z" fill="black"/>
<path d="M154.08 179.76H145.52V188.32H154.08V179.76Z" fill="black"/>
<path d="M162.64 179.76H154.08V188.32H162.64V179.76Z" fill="black"/>
<path d="M205.44 179.76H196.88V188.32H205.44V179.76Z" fill="black"/>
<path d="M214 179.76H205.44V188.32H214V179.76Z" fill="black"/>
<path d="M85.6 188.32H77.04L77.04 196.88H85.6V188.32Z" fill="black"/>
<path d="M102.72 188.32L94.16 188.32V196.88H102.72L102.72 188.32Z" fill="black"/>
<path d="M154.08 188.32H145.52L145.52 196.88H154.08V188.32Z" fill="black"/>
<path d="M179.76 188.32H171.2V196.88H179.76V188.32Z" fill="black"/>
<path d="M188.32 188.32H179.76V196.88H188.32V188.32Z" fill="black"/>
<path d="M196.88 188.32L188.32 188.32V196.88H196.88L196.88 188.32Z" fill="black"/>
<path d="M205.44 188.32H196.88L196.88 196.88H205.44V188.32Z" fill="black"/>
<path d="M214 188.32H205.44V196.88H214V188.32Z" fill="black"/>
<path d="M85.6 196.88H77.04V205.44H85.6V196.88Z" fill="black"/>
<path d="M128.4 196.88H119.84V205.44H128.4V196.88Z" fill="black"/>
<path d="M154.08 196.88H145.52V205.44H154.08V196.88Z" fill="black"/>
<path d="M171.2 196.88L162.64 196.88V205.44H171.2L171.2 196.88Z" fill="black"/>
<path d="M179.76 196.88H171.2L171.2 205.44H179.76V196.88Z" fill="black"/>
<path d="M196.88 196.88H188.32L188.32 205.44H196.88V196.88Z" fill="black"/>
<path d="M205.44 196.88H196.88V205.44H205.44V196.88Z" fill="black"/>
<path d="M214 196.88H205.44V205.44H214V196.88Z" fill="black"/>
<path d="M77.04 205.44L68.48 205.44V214H77.04L77.04 205.44Z" fill="black"/>
<path d="M85.6 205.44H77.04L77.04 214H85.6V205.44Z" fill="black"/>
<path d="M94.16 205.44L85.6 205.44V214H94.16V205.44Z" fill="black"/>
<path d="M111.28 205.44H102.72V214H111.28V205.44Z" fill="black"/>
<path d="M128.4 205.44H119.84V214H128.4V205.44Z" fill="black"/>
<path d="M145.52 205.44L136.96 205.44V214H145.52L145.52 205.44Z" fill="black"/>
<path d="M154.08 205.44H145.52L145.52 214H154.08V205.44Z" fill="black"/>
<path d="M162.64 205.44H154.08V214H162.64L162.64 205.44Z" fill="black"/>
<path d="M188.32 205.44H179.76L179.76 214H188.32L188.32 205.44Z" fill="black"/>
<path d="M214 205.44H205.44L205.44 214H214V205.44Z" fill="black"/>
<path d="M0 0V59.92H59.92V0H0ZM50.932 50.932H8.98803V8.98803H50.932V50.932Z" fill="black"/>
<path d="M154.08 7.59391e-05V59.9201H214V7.59391e-05H154.08ZM205.012 50.932H163.068V8.98801H205.012V50.932Z" fill="black"/>
<path d="M7.59391e-05 154.08V214H59.92V154.08H7.59391e-05ZM50.9321 205.012H8.9881V163.068H50.9321V205.012Z" fill="black"/>
<path d="M42.8001 17.1201H17.1201V42.8001H42.8001V17.1201Z" fill="black"/>
<path d="M196.88 17.1201H171.2V42.8001H196.88V17.1201Z" fill="black"/>
<path d="M42.8001 171.2H17.1201V196.88H42.8001V171.2Z" fill="black"/>
<path d="M77.04 8.56007V9.06007H77.54V8.56007H77.04ZM85.6 8.56007H85.1V9.06007H85.6V8.56007ZM111.28 8.56007H111.78V8.06007H111.28V8.56007ZM119.84 8.56007V8.06007H119.34V8.56007L119.84 8.56007ZM94.16 17.1201H94.66V16.6201H94.16V17.1201ZM102.72 17.1201V16.6201H102.22V17.1201L102.72 17.1201ZM119.84 17.1201V17.6201H120.34V17.1201H119.84ZM102.72 25.6801L102.22 25.6801V26.1801H102.72V25.6801ZM111.28 34.24V34.74H111.78V34.24H111.28ZM102.72 34.24V33.74H102.22V34.24H102.72ZM94.16 42.8H93.66V43.3H94.16V42.8ZM102.72 42.8V43.3H103.22V42.8H102.72ZM111.28 59.9201H111.78V59.4201H111.28V59.9201ZM51.36 77.04V77.54H51.86V77.04H51.36ZM68.48 77.04H67.98V77.54H68.48V77.04ZM77.04 77.04H77.54V76.54H77.04V77.04ZM85.6 77.04V76.54H85.1V77.04H85.6ZM136.96 77.04V77.54H137.46V77.04H136.96ZM128.4 77.04V76.54H127.9L127.9 77.04L128.4 77.04ZM179.76 77.04H180.26V76.54H179.76V77.04ZM171.2 77.04V76.54H170.7V77.04L171.2 77.04ZM188.32 77.04V76.54H187.82V77.04H188.32ZM205.44 77.04V77.54H205.94V77.04H205.44ZM34.2401 85.6V86.1H34.7401V85.6H34.2401ZM25.6801 85.6V85.1H25.1801L25.1801 85.6H25.6801ZM77.04 85.6V86.1H77.54V85.6H77.04ZM68.48 85.6V85.1H67.98V85.6H68.48ZM94.16 85.6H93.66V86.1H94.16V85.6ZM119.84 85.6V86.1H120.34V85.6H119.84ZM128.4 85.6L127.9 85.6L127.9 86.1H128.4V85.6ZM179.76 85.6H179.26V86.1H179.76V85.6ZM188.32 85.6V86.1H188.82V85.6H188.32ZM17.1201 94.16V93.66H16.6201V94.16H17.1201ZM136.96 94.16H137.46V93.66H136.96V94.16ZM154.08 94.16H153.58V94.66H154.08V94.16ZM162.64 94.16H163.14V93.66H162.64V94.16ZM188.32 94.16H188.82V93.66H188.32V94.16ZM179.76 94.16V93.66H179.26V94.16H179.76ZM205.44 94.16V93.66H204.94V94.16H205.44ZM17.1201 102.72V103.22H17.6201L17.6201 102.72H17.1201ZM136.96 102.72V103.22H137.46V102.72H136.96ZM171.2 102.72V103.22H171.7V102.72H171.2ZM205.44 102.72H204.94V103.22H205.44V102.72ZM17.1201 111.28H17.6201V110.78H17.1201V111.28ZM8.56009 111.28V110.78H8.06009L8.06009 111.28H8.56009ZM42.8001 111.28V111.78H43.3001V111.28H42.8001ZM34.2401 111.28V110.78H33.7401V111.28H34.2401ZM85.6 111.28H85.1V111.78H85.6V111.28ZM136.96 111.28H137.46V110.78H136.96V111.28ZM128.4 111.28V110.78H127.9L127.9 111.28L128.4 111.28ZM25.6801 119.84V120.34H26.1801V119.84H25.6801ZM59.92 119.84V119.34H59.42V119.84H59.92ZM128.4 119.84L127.9 119.84L127.9 120.34H128.4V119.84ZM136.96 119.84V120.34H137.46V119.84H136.96ZM179.76 119.84H180.26V119.34H179.76V119.84ZM205.44 119.84H205.94V119.34H205.44V119.84ZM196.88 119.84V119.34H196.38V119.84H196.88ZM8.56007 128.4V128.9H9.06007V128.4H8.56007ZM51.36 128.4V128.9H51.86V128.4H51.36ZM59.92 128.4H59.42V128.9H59.92V128.4ZM136.96 128.4H137.46V127.9H136.96V128.4ZM179.76 128.4H179.26V128.9H179.76V128.4ZM196.88 128.4V128.9H197.38V128.4H196.88ZM205.44 128.4H204.94V128.9H205.44V128.4ZM34.2401 136.96H34.7401V136.46H34.2401V136.96ZM25.6801 136.96V136.46H25.1801L25.1801 136.96L25.6801 136.96ZM68.48 136.96H68.98V136.46H68.48V136.96ZM59.92 136.96V136.46H59.42V136.96L59.92 136.96ZM111.28 136.96H111.78V136.46H111.28V136.96ZM102.72 136.96V136.46H102.22V136.96L102.72 136.96ZM136.96 136.96H136.46V137.46H136.96V136.96ZM154.08 136.96H154.58V136.46H154.08V136.96ZM171.2 136.96H171.7V136.46H171.2V136.96ZM162.64 136.96V136.46H162.14V136.96L162.64 136.96ZM188.32 136.96H187.82V137.46H188.32V136.96ZM196.88 136.96H197.38V136.46H196.88V136.96ZM68.48 145.52H67.98V146.02H68.48V145.52ZM102.72 145.52V146.02H103.22V145.52H102.72ZM94.16 145.52V145.02H93.66V145.52H94.16ZM111.28 145.52H110.78V146.02H111.28V145.52ZM145.52 145.52V146.02H146.02V145.52H145.52ZM171.2 145.52H170.7V146.02H171.2V145.52ZM77.04 154.08H77.54V153.58H77.04V154.08ZM85.6 162.64H86.1V162.14H85.6V162.64ZM136.96 162.64V162.14H136.46V162.64H136.96ZM102.72 171.2H103.22V170.7H102.72V171.2ZM128.4 171.2V170.7H127.9L127.9 171.2L128.4 171.2ZM145.52 171.2H146.02V170.7H145.52V171.2ZM171.2 171.2V170.7H170.7V171.2H171.2ZM85.6 179.76V180.26H86.1V179.76H85.6ZM102.72 179.76H102.22V180.26H102.72V179.76ZM111.28 179.76H111.78V179.26H111.28V179.76ZM119.84 179.76V179.26H119.34V179.76H119.84ZM162.64 179.76V180.26H163.14V179.76H162.64ZM77.04 188.32H76.54V188.82H77.04V188.32ZM145.52 188.32H145.02V188.82H145.52V188.32ZM154.08 188.32V188.82H154.58V188.32H154.08ZM196.88 188.32V187.82H196.38V188.32H196.88ZM179.76 196.88V197.38H180.26V196.88H179.76ZM171.2 196.88V196.38H170.7V196.88H171.2ZM188.32 196.88H187.82V197.38H188.32V196.88ZM85.6 205.44H86.1V204.94H85.6V205.44ZM77.04 205.44V204.94H76.54V205.44H77.04ZM154.08 205.44H154.58V204.94H154.08V205.44ZM145.52 205.44V204.94H145.02V205.44H145.52ZM205.44 205.44H204.94V205.94H205.44V205.44ZM8.98803 8.98803V8.48803H8.48803V8.98803H8.98803ZM50.932 8.98803H51.432V8.48803H50.932V8.98803ZM50.932 50.932V51.432H51.432V50.932H50.932ZM8.98803 50.932H8.48803V51.432H8.98803V50.932ZM163.068 8.98801V8.48801H162.568V8.98801H163.068ZM205.012 8.98801H205.512V8.48801H205.012V8.98801ZM205.012 50.932V51.432H205.512V50.932H205.012ZM163.068 50.932H162.568V51.432H163.068V50.932ZM8.9881 163.068V162.568H8.4881V163.068H8.9881ZM50.9321 163.068H51.4321V162.568H50.9321V163.068ZM50.9321 205.012V205.512H51.4321V205.012H50.9321ZM8.9881 205.012H8.4881V205.512H8.9881V205.012ZM77.04 7.59391e-05H76.54V8.56007H77.04H77.54V7.59391e-05H77.04ZM77.04 8.56007V8.06007H68.48V8.56007V9.06007H77.04V8.56007ZM85.6 7.59391e-05H85.1V8.56007H85.6H86.1V7.59391e-05H85.6ZM94.16 8.56007V8.06007H85.6V8.56007V9.06007H94.16V8.56007ZM111.28 8.56007V8.06007H102.72V8.56007V9.06007H111.28V8.56007ZM128.4 8.56007V8.06007H119.84V8.56007V9.06007H128.4V8.56007ZM77.04 17.1201V16.6201H68.48V17.1201V17.6201H77.04V17.1201ZM94.16 17.1201V16.6201H85.6V17.1201V17.6201H94.16V17.1201ZM111.28 8.56007H110.78V17.1201H111.28H111.78V8.56007H111.28ZM111.28 17.1201V16.6201H102.72V17.1201V17.6201H111.28V17.1201ZM119.84 8.56007L119.34 8.56007L119.34 17.1201L119.84 17.1201H120.34L120.34 8.56007L119.84 8.56007ZM119.84 17.1201V16.6201H111.28V17.1201V17.6201H119.84V17.1201ZM145.52 17.1201V16.6201H136.96V17.1201V17.6201H145.52V17.1201ZM94.16 17.1201H93.66V25.6801H94.16H94.66V17.1201H94.16ZM102.72 17.1201L102.22 17.1201L102.22 25.6801L102.72 25.6801H103.22L103.22 17.1201H102.72ZM111.28 17.1201H110.78V25.6801H111.28H111.78V17.1201H111.28ZM111.28 25.6801V25.1801H102.72V25.6801V26.1801H111.28V25.6801ZM119.84 25.6801V25.1801H111.28V25.6801V26.1801H119.84V25.6801ZM111.28 25.6801H110.78V34.24H111.28H111.78V25.6801H111.28ZM111.28 34.24V33.74H102.72V34.24V34.74H111.28V34.24ZM94.16 34.24H93.66V42.8H94.16H94.66V34.24H94.16ZM102.72 34.24H102.22L102.22 42.8H102.72H103.22L103.22 34.24H102.72ZM102.72 42.8V42.3H94.16V42.8V43.3H102.72V42.8ZM128.4 42.8V42.3H119.84V42.8V43.3H128.4V42.8ZM128.4 51.3601V50.8601H119.84V51.3601V51.8601H128.4V51.3601ZM111.28 59.9201V59.4201H102.72V59.9201V60.4201H111.28V59.9201ZM111.28 59.9201H110.78V68.4801H111.28H111.78V59.9201H111.28ZM34.2401 68.48H33.7401V77.04H34.2401H34.7401V68.48H34.2401ZM34.2401 77.04V76.54H25.6801V77.04V77.54H34.2401V77.04ZM42.8001 68.48H42.3001V77.04H42.8001H43.3001V68.48H42.8001ZM42.8001 77.04V76.54H34.2401V77.04V77.54H42.8001V77.04ZM51.36 68.48H50.86V77.04H51.36H51.86V68.48H51.36ZM51.36 77.04V76.54H42.8001V77.04V77.54H51.36V77.04ZM59.92 68.48H59.42V77.04H59.92H60.42V68.48H59.92ZM68.48 68.48H67.98V77.04H68.48H68.98V68.48H68.48ZM77.04 77.04V76.54H68.48V77.04V77.54H77.04V77.04ZM94.16 68.48H93.66V77.04H94.16H94.66V68.48H94.16ZM94.16 77.04V76.54H85.6V77.04V77.54H94.16V77.04ZM102.72 77.04V76.54H94.16V77.04V77.54H102.72V77.04ZM136.96 68.48H136.46V77.04H136.96H137.46V68.48H136.96ZM136.96 77.04V76.54H128.4V77.04V77.54H136.96V77.04ZM145.52 68.48H145.02V77.04H145.52H146.02V68.48H145.52ZM179.76 77.04V76.54H171.2V77.04V77.54H179.76V77.04ZM196.88 68.48H196.38V77.04H196.88H197.38V68.48H196.88ZM196.88 77.04V76.54H188.32V77.04V77.54H196.88V77.04ZM205.44 68.48H204.94V77.04H205.44H205.94V68.48H205.44ZM205.44 77.04V76.54H196.88V77.04V77.54H205.44V77.04ZM34.2401 77.04H33.7401V85.6H34.2401H34.7401V77.04H34.2401ZM34.2401 85.6V85.1H25.6801V85.6V86.1H34.2401V85.6ZM42.8001 77.04H42.3001V85.6H42.8001H43.3001V77.04H42.8001ZM77.04 77.04H76.54V85.6H77.04H77.54V77.04H77.04ZM77.04 85.6V85.1H68.48V85.6V86.1H77.04V85.6ZM85.6 77.04H85.1L85.1 85.6H85.6H86.1L86.1 77.04H85.6ZM94.16 77.04H93.66V85.6H94.16H94.66V77.04H94.16ZM102.72 85.6V85.1H94.16V85.6V86.1H102.72V85.6ZM119.84 77.04H119.34V85.6H119.84H120.34V77.04H119.84ZM119.84 85.6V85.1H111.28V85.6V86.1H119.84V85.6ZM128.4 77.04L127.9 77.04L127.9 85.6L128.4 85.6L128.9 85.6L128.9 77.04L128.4 77.04ZM136.96 85.6V85.1H128.4V85.6V86.1H136.96V85.6ZM171.2 77.04L170.7 77.04L170.7 85.6H171.2L171.7 85.6L171.7 77.04H171.2ZM179.76 77.04H179.26V85.6H179.76H180.26V77.04H179.76ZM188.32 77.04H187.82L187.82 85.6H188.32H188.82L188.82 77.04H188.32ZM188.32 85.6V85.1H179.76V85.6V86.1H188.32V85.6ZM196.88 77.04H196.38V85.6H196.88H197.38V77.04H196.88ZM25.6801 85.6H25.1801L25.1801 94.16H25.6801H26.1801L26.1801 85.6L25.6801 85.6ZM25.6801 94.16V93.66H17.1201V94.16V94.66H25.6801V94.16ZM34.2401 94.16V93.66H25.6801V94.16V94.66H34.2401V94.16ZM59.92 85.6001H59.42V94.16H59.92H60.42V85.6001H59.92ZM68.48 85.6H67.98L67.98 94.16H68.48H68.98L68.98 85.6H68.48ZM136.96 94.16V93.66H128.4V94.16V94.66H136.96V94.16ZM154.08 85.6001H153.58V94.16H154.08H154.58V85.6001H154.08ZM162.64 94.16V93.66H154.08V94.16V94.66H162.64V94.16ZM188.32 94.16V93.66H179.76V94.16V94.66H188.32V94.16ZM214 94.16V93.66H205.44V94.16V94.66H214V94.16ZM17.1201 94.16H16.6201L16.6201 102.72H17.1201H17.6201L17.6201 94.16H17.1201ZM17.1201 102.72V102.22H8.56009V102.72V103.22H17.1201V102.72ZM25.6801 94.16H25.1801V102.72H25.6801H26.1801V94.16H25.6801ZM136.96 94.16H136.46V102.72H136.96H137.46V94.16H136.96ZM136.96 102.72V102.22H128.4V102.72V103.22H136.96V102.72ZM162.64 94.16H162.14V102.72H162.64H163.14V94.16H162.64ZM162.64 102.72V102.22H154.08V102.72V103.22H162.64V102.72ZM171.2 94.1601H170.7V102.72H171.2H171.7V94.1601H171.2ZM171.2 102.72V102.22H162.64V102.72V103.22H171.2V102.72ZM179.76 94.16H179.26L179.26 102.72H179.76H180.26L180.26 94.16H179.76ZM188.32 94.16H187.82V102.72H188.32H188.82V94.16H188.32ZM196.88 94.1601H196.38V102.72H196.88H197.38V94.1601H196.88ZM205.44 94.16H204.94L204.94 102.72H205.44H205.94L205.94 94.16H205.44ZM214 102.72V102.22H205.44V102.72V103.22H214V102.72ZM17.1201 111.28V110.78H8.56009V111.28V111.78H17.1201V111.28ZM42.8001 102.72H42.3001V111.28H42.8001H43.3001V102.72H42.8001ZM42.8001 111.28V110.78H34.2401V111.28V111.78H42.8001V111.28ZM51.36 102.72H50.86V111.28H51.36H51.86V102.72H51.36ZM77.04 102.72H76.54V111.28H77.04H77.54V102.72H77.04ZM85.6 102.72H85.1V111.28H85.6H86.1V102.72H85.6ZM94.16 111.28V110.78H85.6V111.28V111.78H94.16V111.28ZM136.96 111.28V110.78H128.4V111.28V111.78H136.96V111.28ZM162.64 102.72H162.14V111.28H162.64H163.14V102.72H162.64ZM8.56009 111.28H8.06009L8.06007 119.84H8.56007H9.06007L9.06009 111.28H8.56009ZM8.56007 119.84V119.34H7.59391e-05V119.84V120.34H8.56007V119.84ZM17.1201 111.28H16.6201V119.84H17.1201H17.6201V111.28H17.1201ZM17.1201 119.84V119.34H8.56007V119.84V120.34H17.1201V119.84ZM25.6801 111.28H25.1801V119.84H25.6801H26.1801V111.28H25.6801ZM25.6801 119.84V119.34H17.1201V119.84V120.34H25.6801V119.84ZM34.2401 111.28H33.7401L33.7401 119.84H34.2401H34.7401L34.7401 111.28H34.2401ZM68.48 119.84V119.34H59.92V119.84V120.34H68.48V119.84ZM111.28 111.28H110.78V119.84H111.28H111.78V111.28H111.28ZM119.84 111.28H119.34V119.84H119.84H120.34V111.28H119.84ZM128.4 111.28L127.9 111.28L127.9 119.84L128.4 119.84L128.9 119.84L128.9 111.28L128.4 111.28ZM136.96 111.28H136.46V119.84H136.96H137.46V111.28H136.96ZM136.96 119.84V119.34H128.4V119.84V120.34H136.96V119.84ZM145.52 111.28H145.02V119.84H145.52H146.02V111.28H145.52ZM179.76 119.84V119.34H171.2V119.84V120.34H179.76V119.84ZM205.44 119.84V119.34H196.88V119.84V120.34H205.44V119.84ZM8.56007 119.84H8.06007V128.4H8.56007H9.06007V119.84H8.56007ZM8.56007 128.4V127.9H7.59391e-05V128.4V128.9H8.56007V128.4ZM17.1201 119.84H16.6201V128.4H17.1201H17.6201V119.84H17.1201ZM51.36 119.84H50.86V128.4H51.36H51.86V119.84H51.36ZM51.36 128.4V127.9H42.8V128.4V128.9H51.36V128.4ZM59.92 119.84H59.42L59.42 128.4H59.92H60.42L60.42 119.84H59.92ZM68.48 128.4V127.9H59.92V128.4V128.9H68.48V128.4ZM136.96 128.4V127.9H128.4V128.4V128.9H136.96V128.4ZM179.76 119.84H179.26V128.4H179.76H180.26V119.84H179.76ZM188.32 119.84H187.82V128.4H188.32H188.82V119.84H188.32ZM188.32 128.4V127.9H179.76V128.4V128.9H188.32V128.4ZM196.88 119.84H196.38L196.38 128.4H196.88H197.38L197.38 119.84H196.88ZM196.88 128.4V127.9H188.32V128.4V128.9H196.88V128.4ZM205.44 119.84H204.94V128.4H205.44H205.94V119.84H205.44ZM214 128.4V127.9H205.44V128.4V128.9H214V128.4ZM8.56007 136.96V136.46H7.59391e-05V136.96V137.46H8.56007V136.96ZM34.2401 136.96V136.46H25.6801V136.96V137.46H34.2401V136.96ZM68.48 136.96V136.46H59.92V136.96V137.46H68.48V136.96ZM111.28 136.96V136.46H102.72V136.96V137.46H111.28V136.96ZM136.96 128.4H136.46V136.96H136.96H137.46V128.4H136.96ZM145.52 128.4H145.02V136.96H145.52H146.02V128.4H145.52ZM145.52 136.96V136.46H136.96V136.96V137.46H145.52V136.96ZM154.08 136.96V136.46H145.52V136.96V137.46H154.08V136.96ZM171.2 136.96V136.46H162.64V136.96V137.46H171.2V136.96ZM188.32 128.4H187.82V136.96H188.32H188.82V128.4H188.32ZM196.88 136.96V136.46H188.32V136.96V137.46H196.88V136.96ZM25.6801 136.96L25.1801 136.96L25.1801 145.52H25.6801H26.1801L26.1801 136.96H25.6801ZM34.2401 136.96H33.7401V145.52H34.2401H34.7401V136.96H34.2401ZM59.92 136.96L59.42 136.96L59.42 145.52H59.92H60.42L60.42 136.96H59.92ZM68.48 136.96H67.98V145.52H68.48H68.98V136.96H68.48ZM77.04 145.52V145.02H68.48V145.52V146.02H77.04V145.52ZM102.72 136.96L102.22 136.96L102.22 145.52H102.72H103.22L103.22 136.96H102.72ZM102.72 145.52V145.02H94.16V145.52V146.02H102.72V145.52ZM111.28 136.96H110.78V145.52H111.28H111.78V136.96H111.28ZM119.84 145.52V145.02H111.28V145.52V146.02H119.84V145.52ZM145.52 136.96H145.02V145.52H145.52H146.02V136.96H145.52ZM145.52 145.52V145.02H136.96V145.52V146.02H145.52V145.52ZM154.08 136.96H153.58V145.52H154.08H154.58V136.96H154.08ZM162.64 136.96L162.14 136.96L162.14 145.52H162.64H163.14L163.14 136.96H162.64ZM171.2 136.96H170.7V145.52H171.2H171.7V136.96H171.2ZM179.76 145.52V145.02H171.2V145.52V146.02H179.76V145.52ZM196.88 136.96H196.38V145.52H196.88H197.38V136.96H196.88ZM196.88 145.52V145.02H188.32V145.52V146.02H196.88V145.52ZM205.44 145.52V145.02H196.88V145.52V146.02H205.44V145.52ZM77.04 154.08V153.58H68.48V154.08V154.58H77.04V154.08ZM94.16 145.52H93.66L93.66 154.08H94.16L94.66 154.08L94.66 145.52H94.16ZM145.52 154.08V153.58H136.96V154.08V154.58H145.52V154.08ZM179.76 154.08V153.58H171.2V154.08V154.58H179.76V154.08ZM196.88 145.52H196.38V154.08H196.88H197.38V145.52H196.88ZM77.04 154.08H76.54V162.64H77.04H77.54V154.08H77.04ZM77.04 162.64V162.14H68.48V162.64V163.14H77.04V162.64ZM85.6 162.64V162.14H77.04V162.64V163.14H85.6V162.64ZM145.52 162.64V162.14H136.96V162.64V163.14H145.52V162.64ZM179.76 162.64V162.14H171.2V162.64V163.14H179.76V162.64ZM214 162.64V162.14H205.44V162.64V163.14H214V162.64ZM77.04 162.64H76.54V171.2H77.04H77.54V162.64H77.04ZM77.04 171.2V170.7H68.48V171.2V171.7H77.04V171.2ZM85.6 162.64H85.1V171.2H85.6H86.1V162.64H85.6ZM85.6 171.2V170.7H77.04V171.2V171.7H85.6V171.2ZM94.16 162.64H93.66V171.2H94.16H94.66V162.64H94.16ZM94.16 171.2V170.7H85.6V171.2V171.7H94.16V171.2ZM102.72 171.2V170.7H94.16V171.2V171.7H102.72V171.2ZM136.96 162.64H136.46L136.46 171.2H136.96H137.46L137.46 162.64H136.96ZM136.96 171.2V170.7H128.4V171.2V171.7H136.96V171.2ZM145.52 171.2V170.7H136.96V171.2V171.7H145.52V171.2ZM179.76 171.2V170.7H171.2V171.2V171.7H179.76V171.2ZM77.04 171.2H76.54V179.76H77.04H77.54V171.2H77.04ZM77.04 179.76V179.26H68.48V179.76V180.26H77.04V179.76ZM85.6 171.2H85.1V179.76H85.6H86.1V171.2H85.6ZM85.6 179.76V179.26H77.04V179.76V180.26H85.6V179.76ZM94.16 171.2H93.66V179.76H94.16H94.66V171.2H94.16ZM102.72 171.2H102.22V179.76H102.72H103.22V171.2H102.72ZM111.28 179.76V179.26H102.72V179.76V180.26H111.28V179.76ZM128.4 171.2L127.9 171.2L127.9 179.76H128.4L128.9 179.76L128.9 171.2H128.4ZM128.4 179.76V179.26H119.84V179.76V180.26H128.4V179.76ZM136.96 171.2H136.46V179.76H136.96H137.46V171.2H136.96ZM136.96 179.76V179.26H128.4V179.76V180.26H136.96V179.76ZM145.52 171.2H145.02V179.76H145.52H146.02V171.2H145.52ZM145.52 179.76V179.26H136.96V179.76V180.26H145.52V179.76ZM154.08 171.2H153.58V179.76H154.08H154.58V171.2H154.08ZM154.08 179.76V179.26H145.52V179.76V180.26H154.08V179.76ZM162.64 171.2H162.14V179.76H162.64H163.14V171.2H162.64ZM162.64 179.76V179.26H154.08V179.76V180.26H162.64V179.76ZM171.2 171.2H170.7L170.7 179.76H171.2H171.7L171.7 171.2L171.2 171.2ZM77.04 179.76H76.54V188.32H77.04H77.54V179.76H77.04ZM85.6 188.32V187.82H77.04V188.32V188.82H85.6V188.32ZM111.28 179.76H110.78V188.32H111.28H111.78V179.76H111.28ZM119.84 179.76H119.34L119.34 188.32H119.84H120.34L120.34 179.76H119.84ZM128.4 179.76H127.9V188.32H128.4H128.9V179.76H128.4ZM136.96 179.76H136.46V188.32H136.96H137.46V179.76H136.96ZM145.52 179.76H145.02V188.32H145.52H146.02V179.76H145.52ZM154.08 179.76H153.58V188.32H154.08H154.58V179.76H154.08ZM154.08 188.32V187.82H145.52V188.32V188.82H154.08V188.32ZM205.44 179.76H204.94V188.32H205.44H205.94V179.76H205.44ZM205.44 188.32V187.82H196.88V188.32V188.82H205.44V188.32ZM214 188.32V187.82H205.44V188.32V188.82H214V188.32ZM85.6 196.88V196.38H77.04V196.88V197.38H85.6V196.88ZM154.08 196.88V196.38H145.52V196.88V197.38H154.08V196.88ZM179.76 188.32H179.26V196.88H179.76H180.26V188.32H179.76ZM179.76 196.88V196.38H171.2V196.88V197.38H179.76V196.88ZM188.32 188.32H187.82V196.88H188.32H188.82V188.32H188.32ZM196.88 188.32H196.38L196.38 196.88H196.88H197.38L197.38 188.32H196.88ZM196.88 196.88V196.38H188.32V196.88V197.38H196.88V196.88ZM205.44 188.32H204.94V196.88H205.44H205.94V188.32H205.44ZM205.44 196.88V196.38H196.88V196.88V197.38H205.44V196.88ZM214 196.88V196.38H205.44V196.88V197.38H214V196.88ZM85.6 205.44V204.94H77.04V205.44V205.94H85.6V205.44ZM128.4 205.44V204.94H119.84V205.44V205.94H128.4V205.44ZM154.08 205.44V204.94H145.52V205.44V205.94H154.08V205.44ZM171.2 196.88H170.7L170.7 205.44H171.2H171.7L171.7 196.88H171.2ZM196.88 196.88H196.38V205.44H196.88H197.38V196.88H196.88ZM205.44 196.88H204.94V205.44H205.44H205.94V196.88H205.44ZM214 205.44V204.94H205.44V205.44V205.94H214V205.44ZM77.04 205.44H76.54L76.54 214H77.04H77.54L77.54 205.44H77.04ZM85.6 205.44H85.1V214H85.6H86.1V205.44H85.6ZM145.52 205.44H145.02L145.02 214H145.52H146.02L146.02 205.44H145.52ZM154.08 205.44H153.58V214H154.08H154.58V205.44H154.08ZM8.98803 8.98803V9.48803H50.932V8.98803V8.48803H8.98803V8.98803ZM50.932 8.98803H50.432V50.932H50.932H51.432V8.98803H50.932ZM50.932 50.932V50.432H8.98803V50.932V51.432H50.932V50.932ZM8.98803 50.932H9.48803V8.98803H8.98803H8.48803V50.932H8.98803ZM163.068 8.98801V9.48801H205.012V8.98801V8.48801H163.068V8.98801ZM205.012 8.98801H204.512V50.932H205.012H205.512V8.98801H205.012ZM205.012 50.932V50.432H163.068V50.932V51.432H205.012V50.932ZM163.068 50.932H163.568V8.98801H163.068H162.568V50.932H163.068ZM8.9881 163.068V163.568H50.9321V163.068V162.568H8.9881V163.068ZM50.9321 163.068H50.4321V205.012H50.9321H51.4321V163.068H50.9321ZM50.9321 205.012V204.512H8.9881V205.012V205.512H50.9321V205.012ZM8.9881 205.012H9.4881V163.068H8.9881H8.4881V205.012H8.9881ZM68.48 7.59391e-05V-0.999924H67.48V7.59391e-05H68.48ZM77.04 8.56007V7.56007H76.04V8.56007H77.04ZM85.6 8.56007L86.6 8.56007L86.6 7.56007H85.6V8.56007ZM94.16 7.59391e-05H95.16V-0.999924H94.16V7.59391e-05ZM102.72 7.59391e-05V-0.999924H101.72V7.59391e-05H102.72ZM111.28 7.59391e-05H112.28V-0.999924H111.28V7.59391e-05ZM111.28 8.56007H110.28V9.56007H111.28V8.56007ZM119.84 7.59391e-05V-0.999924H118.84V7.59391e-05H119.84ZM128.4 7.59391e-05H129.4V-0.999924H128.4V7.59391e-05ZM119.84 8.56007V9.56007H120.84V8.56007H119.84ZM94.16 17.1201H93.16V18.1201H94.16V17.1201ZM85.6 17.1201H86.6V17.1201L85.6 17.1201ZM102.72 17.1201V18.1201H103.72V17.1201H102.72ZM119.84 17.1201V16.1201H118.84V17.1201H119.84ZM128.4 17.1201V18.1201H129.4V17.1201H128.4ZM136.96 8.56009V7.56009H135.96V8.56009H136.96ZM145.52 8.56009H146.52V7.56009H145.52V8.56009ZM68.48 25.6801H67.48V26.6801H68.48V25.6801ZM102.72 25.6801L103.72 25.6801V24.6801H102.72V25.6801ZM145.52 25.6801V26.6801H146.52V25.6801H145.52ZM136.96 25.6801H135.96V26.6801H136.96V25.6801ZM111.28 34.24V33.24H110.28V34.24H111.28ZM102.72 34.24V35.24H103.72V34.24H102.72ZM68.48 34.24L68.48 33.24L67.48 33.2401V34.24H68.48ZM77.04 42.8V43.8H78.04V42.8L77.04 42.8ZM68.48 42.8H67.48V43.8H68.48V42.8ZM94.16 34.24V35.24V34.24ZM94.16 42.8H95.16V41.8H94.16V42.8ZM85.6 42.8H84.6V43.8H85.6V42.8ZM102.72 42.8V41.8H101.72V42.8H102.72ZM111.28 42.8V43.8H112.28V42.8H111.28ZM128.4 34.24H129.4V33.2401L128.4 33.24V34.24ZM119.84 42.8H120.84V42.8L119.84 42.8ZM136.96 34.24V33.24H135.96V34.24H136.96ZM145.52 34.24H146.52V33.24H145.52V34.24ZM145.52 42.8V43.8H146.52V42.8H145.52ZM136.96 42.8H135.96V43.8H136.96V42.8ZM68.48 51.3601V50.3601H67.48V51.3601H68.48ZM77.04 51.3601H78.04V50.3601H77.04V51.3601ZM68.48 59.9201H67.48V60.9201H68.48V59.9201ZM85.6 51.3601V50.3601H84.6V51.3601H85.6ZM94.16 59.9201V60.9201H95.16V59.9201L94.16 59.9201ZM111.28 51.3601H112.28V50.3601H111.28V51.3601ZM111.28 59.9201H110.28V60.9201H111.28V59.9201ZM102.72 59.9201H103.72H102.72ZM128.4 59.9201V60.9201H129.4V59.9201H128.4ZM136.96 51.3601V50.3601H135.96V51.3601H136.96ZM145.52 51.3601H146.52V50.3601H145.52V51.3601ZM145.52 59.9201V60.9201H146.52V59.9201H145.52ZM136.96 59.9201H135.96V60.9201H136.96V59.9201ZM119.84 68.4801V69.4801H120.84V68.4801H119.84ZM7.59391e-05 68.48V67.48H-0.999924V68.48H7.59391e-05ZM8.56007 68.48H9.56007V67.48H8.56007V68.48ZM8.56007 77.04V78.04H9.56007V77.04H8.56007ZM7.59391e-05 77.04H-0.999924V78.04H7.59391e-05V77.04ZM25.6801 68.48V67.48H24.6801V68.48H25.6801ZM51.36 77.04V76.04H50.36V77.04H51.36ZM68.48 68.48L68.48 67.48H68.48V68.48ZM68.48 77.04L69.48 77.04V76.04H68.48V77.04ZM77.04 77.04L76.04 77.04V78.04H77.04V77.04ZM94.16 68.48L94.16 67.48H94.16L94.16 68.48ZM85.6 77.04V78.04H86.6V77.04L85.6 77.04ZM102.72 77.04L101.72 77.04V77.04H102.72ZM128.4 68.48V67.48H127.4V68.48H128.4ZM136.96 77.04V76.04H135.96V77.04H136.96ZM128.4 77.04V78.04L129.4 78.04V77.04H128.4ZM154.08 68.48H155.08V67.48H154.08V68.48ZM154.08 77.04V78.04H155.08V77.04H154.08ZM171.2 68.48V67.48H170.2V68.48H171.2ZM179.76 68.48H180.76V67.48H179.76V68.48ZM179.76 77.04H178.76V78.04H179.76V77.04ZM171.2 77.04V78.04L172.2 78.04V77.04H171.2ZM188.32 68.48V67.48H187.32V68.48H188.32ZM188.32 77.04V78.04H189.32V77.04H188.32ZM205.44 77.04V76.04H204.44V77.04H205.44ZM214 68.48H215V67.48H214V68.48ZM214 77.04V78.04H215V77.04H214ZM34.2401 85.6V84.6H33.2401V85.6H34.2401ZM25.6801 85.6L25.6801 86.6H26.6801V85.6H25.6801ZM77.04 85.6V84.6H76.04V85.6H77.04ZM68.48 85.6V86.6H69.48V85.6H68.48ZM94.16 85.6H95.16V84.6H94.16V85.6ZM111.28 77.04V76.04H110.28V77.04H111.28ZM119.84 77.04V78.04H119.84L119.84 77.04ZM119.84 85.6V84.6H118.84V85.6H119.84ZM128.4 85.6L129.4 85.6001L129.4 84.6H128.4V85.6ZM162.64 77.04V76.04H161.64V77.04H162.64ZM179.76 85.6H180.76V84.6H179.76V85.6ZM188.32 85.6V84.6H187.32V85.6H188.32ZM7.59391e-05 85.6001V84.6001H-0.999924V85.6001H7.59391e-05ZM8.56007 85.6001H9.56007V84.6001H8.56007V85.6001ZM7.59391e-05 94.16H-0.999924V95.16H7.59391e-05V94.16ZM17.1201 85.6001L17.1201 84.6001H16.1201V85.6001H17.1201ZM17.1201 94.16V95.16H18.1201V94.16H17.1201ZM59.92 85.6001V86.6001H59.92L59.92 85.6001ZM51.36 94.16L50.36 94.1601L50.36 95.16H51.36V94.16ZM77.04 94.16V95.16H78.04V94.16H77.04ZM94.16 94.16H93.16V95.16H94.16V94.16ZM119.84 94.16V95.16H120.84V94.16H119.84ZM136.96 94.16H135.96V95.16H136.96V94.16ZM128.4 94.16L127.4 94.16V94.16H128.4ZM145.52 85.6001V84.6001H144.52V85.6001H145.52ZM154.08 85.6001V86.6001V85.6001ZM154.08 94.16H155.08V93.16H154.08V94.16ZM162.64 94.16H161.64V95.16H162.64V94.16ZM188.32 94.16H187.32V95.16H188.32V94.16ZM179.76 94.16V95.16H180.76L180.76 94.16H179.76ZM214 85.6001H215V84.6001H214V85.6001ZM205.44 94.16V95.16H206.44V94.16H205.44ZM17.1201 102.72V101.72H16.1201V102.72H17.1201ZM8.56009 102.72H9.56009H8.56009ZM111.28 102.72V103.72H112.28V102.72H111.28ZM102.72 102.72L101.72 102.72V103.72H102.72V102.72ZM136.96 102.72V101.72H135.96V102.72H136.96ZM145.52 102.72V103.72H146.52V102.72L145.52 102.72ZM154.08 102.72H155.08H154.08ZM171.2 94.1601L171.2 95.1601H171.2V94.1601ZM171.2 102.72V101.72H170.2V102.72H171.2ZM196.88 94.1601V95.1601V94.1601ZM205.44 102.72H206.44V101.72H205.44V102.72ZM17.1201 111.28H16.1201V112.28L17.1201 112.28L17.1201 111.28ZM8.56009 111.28L8.56008 112.28L9.56009 112.28V111.28H8.56009ZM42.8001 102.72L42.8001 103.72H42.8001V102.72ZM42.8001 111.28V110.28H41.8001V111.28H42.8001ZM34.2401 111.28L34.2401 112.28L35.2401 112.28V111.28H34.2401ZM59.92 102.72H60.92V101.72H59.92V102.72ZM68.48 102.72V101.72H67.48V102.72H68.48ZM85.6 111.28H86.6L86.6 110.28H85.6V111.28ZM94.16 102.72H95.16V101.72H94.16V102.72ZM136.96 111.28H135.96V112.28L136.96 112.28V111.28ZM128.4 111.28V112.28L129.4 112.28V111.28H128.4ZM214 111.28V112.28H215V111.28H214ZM7.59391e-05 111.28L8.33319e-05 110.28L-0.999924 110.28V111.28H7.59391e-05ZM25.6801 111.28L25.6801 110.28H25.6801L25.6801 111.28ZM25.6801 119.84V118.84H24.6801V119.84H25.6801ZM68.48 119.84H67.48H68.48ZM59.92 119.84L59.92 120.84H60.92L60.92 119.84H59.92ZM94.16 119.84V120.84H95.16V119.84H94.16ZM85.6 119.84H84.6V120.84H85.6V119.84ZM102.72 111.28V110.28H101.72V111.28H102.72ZM102.72 119.84H101.72V120.84H102.72V119.84ZM119.84 111.28L119.84 110.28H119.84V111.28ZM128.4 119.84L129.4 119.84L129.4 118.84H128.4V119.84ZM136.96 119.84V118.84H135.96V119.84H136.96ZM145.52 111.28V110.28V111.28ZM179.76 111.28H180.76V110.28L179.76 110.28L179.76 111.28ZM179.76 119.84H178.76V120.84H179.76V119.84ZM171.2 119.84H172.2H171.2ZM196.88 111.28V110.28L195.88 110.28V111.28H196.88ZM205.44 119.84H204.44V120.84H205.44V119.84ZM196.88 119.84V120.84H197.88V119.84H196.88ZM8.56007 128.4V127.4H7.56007V128.4H8.56007ZM51.36 119.84V120.84H51.36L51.36 119.84ZM51.36 128.4V127.4H50.36V128.4H51.36ZM42.8 128.4L41.8 128.4V128.4H42.8ZM59.92 128.4H60.92V127.4H59.92V128.4ZM136.96 128.4H135.96V129.4H136.96V128.4ZM128.4 128.4L127.4 128.4V128.4H128.4ZM162.64 119.84H163.64V118.84H162.64V119.84ZM179.76 128.4H180.76V127.4H179.76V128.4ZM188.32 119.84V120.84V119.84ZM196.88 128.4V127.4H195.88V128.4H196.88ZM205.44 128.4H206.44V127.4H205.44V128.4ZM214 119.84H215V118.84H214V119.84ZM34.2401 128.4H35.2401V127.4H34.2401V128.4ZM34.2401 136.96H33.2401V137.96H34.2401V136.96ZM25.6801 136.96L25.6801 137.96L26.6801 137.96L26.6801 136.96L25.6801 136.96ZM68.48 136.96H67.48V137.96L68.48 137.96L68.48 136.96ZM59.92 136.96V137.96H60.92L60.92 136.96L59.92 136.96ZM85.6 128.4V127.4H84.6V128.4H85.6ZM94.16 128.4H95.16V127.4H94.16V128.4ZM85.6 136.96H84.6V137.96H85.6V136.96ZM102.72 128.4V127.4H101.72V128.4H102.72ZM111.28 128.4H112.28V127.4H111.28V128.4ZM111.28 136.96H110.28V137.96L111.28 137.96L111.28 136.96ZM102.72 136.96V137.96H103.72V136.96H102.72ZM136.96 136.96L137.96 136.96V135.96H136.96V136.96ZM128.4 136.96H127.4V137.96H128.4V136.96ZM145.52 128.4V129.4V128.4ZM154.08 136.96L153.08 136.96V137.96H154.08V136.96ZM171.2 136.96L170.2 136.96L170.2 137.96H171.2V136.96ZM162.64 136.96V137.96H163.64V136.96L162.64 136.96ZM188.32 136.96L189.32 136.96V135.96H188.32V136.96ZM196.88 136.96H195.88V137.96H196.88V136.96ZM214 136.96V137.96H215V136.96H214ZM8.56007 145.52V146.52H9.56007V145.52H8.56007ZM7.59391e-05 145.52H-0.999924V146.52H7.59391e-05V145.52ZM17.1201 136.96L17.1201 135.96H16.1201V136.96H17.1201ZM17.1201 145.52H16.1201V146.52H17.1201V145.52ZM42.8001 145.52V146.52H43.8001L43.8001 145.52L42.8001 145.52ZM51.36 145.52H50.36L50.36 146.52H51.36V145.52ZM68.48 145.52H69.48V144.52H68.48V145.52ZM77.04 136.96H78.04V135.96H77.04L77.04 136.96ZM102.72 145.52V144.52H101.72V145.52H102.72ZM94.16 145.52L94.16 146.52H95.16V145.52H94.16ZM111.28 145.52H112.28V144.52H111.28V145.52ZM119.84 136.96H120.84V135.96H119.84L119.84 136.96ZM145.52 145.52V144.52H144.52V145.52H145.52ZM136.96 145.52H137.96H136.96ZM171.2 145.52H172.2L172.2 144.52H171.2V145.52ZM179.76 145.52H178.76H179.76ZM188.32 145.52H189.32H188.32ZM205.44 145.52H204.44H205.44ZM77.04 154.08H76.04V155.08H77.04V154.08ZM68.48 154.08H69.48H68.48ZM85.6 145.52L85.6 144.52L84.6 144.52V145.52H85.6ZM119.84 154.08V155.08H120.84V154.08H119.84ZM171.2 154.08H172.2H171.2ZM188.32 154.08H187.32V155.08H188.32V154.08ZM85.6 162.64H84.6L84.6 163.64H85.6L85.6 162.64ZM136.96 162.64V163.64H137.96V162.64H136.96ZM154.08 154.08V153.08H153.08V154.08H154.08ZM162.64 154.08H163.64V153.08H162.64V154.08ZM162.64 162.64V163.64H163.64V162.64H162.64ZM154.08 162.64H153.08V163.64H154.08V162.64ZM214 154.08H215V153.08H214V154.08ZM205.44 162.64H206.44H205.44ZM94.16 162.64V163.64V162.64ZM102.72 171.2H101.72V172.2H102.72V171.2ZM119.84 162.64H120.84V161.64H119.84L119.84 162.64ZM128.4 162.64V161.64H127.4V162.64H128.4ZM128.4 171.2V172.2H129.4V171.2H128.4ZM145.52 171.2H144.52V172.2H145.52V171.2ZM171.2 171.2V172.2H172.2V171.2H171.2ZM214 171.2V172.2H215V171.2H214ZM205.44 171.2H204.44V172.2H205.44V171.2ZM85.6 179.76V178.76H84.6V179.76H85.6ZM102.72 179.76H103.72V178.76H102.72V179.76ZM111.28 179.76H110.28V180.76H111.28V179.76ZM119.84 179.76V180.76H120.84V179.76H119.84ZM154.08 171.2V172.2V171.2ZM162.64 171.2V172.2V171.2ZM162.64 179.76V178.76H161.64V179.76H162.64ZM179.76 179.76V180.76H180.76V179.76H179.76ZM77.04 188.32H78.04V187.32H77.04V188.32ZM68.48 188.32H67.48V189.32H68.48V188.32ZM145.52 188.32H146.52V187.32H145.52V188.32ZM154.08 188.32V187.32H153.08V188.32H154.08ZM162.64 188.32V189.32H163.64V188.32H162.64ZM196.88 179.76V178.76H195.88V179.76H196.88ZM196.88 188.32V189.32H197.88V188.32H196.88ZM214 179.76H215V178.76H214V179.76ZM77.04 196.88H78.04H77.04ZM94.16 188.32L94.16 187.32H93.16V188.32H94.16ZM102.72 196.88V197.88H103.72V196.88H102.72ZM94.16 196.88H93.16V197.88H94.16V196.88ZM145.52 196.88H146.52V196.88L145.52 196.88ZM171.2 188.32V187.32H170.2V188.32H171.2ZM179.76 196.88V195.88H178.76V196.88H179.76ZM171.2 196.88V197.88H172.2V196.88H171.2ZM188.32 188.32V189.32V188.32ZM188.32 196.88H189.32V195.88H188.32V196.88ZM85.6 205.44H84.6V206.44H85.6L85.6 205.44ZM77.04 205.44V206.44H78.04V205.44H77.04ZM119.84 196.88V195.88H118.84V196.88H119.84ZM128.4 196.88H129.4V195.88H128.4V196.88ZM154.08 205.44H153.08V206.44H154.08V205.44ZM145.52 205.44V206.44H146.52V205.44H145.52ZM162.64 196.88L162.64 195.88L161.64 195.88V196.88H162.64ZM205.44 205.44H206.44V204.44H205.44V205.44ZM68.48 205.44L68.48 204.44H67.48V205.44H68.48ZM68.48 214H67.48V215H68.48V214ZM94.16 205.44H95.16V204.44H94.16V205.44ZM94.16 214V215H95.16V214H94.16ZM102.72 205.44V204.44H101.72V205.44H102.72ZM111.28 205.44H112.28V204.44H111.28V205.44ZM111.28 214V215H112.28V214H111.28ZM102.72 214H101.72V215H102.72V214ZM128.4 214V215H129.4V214H128.4ZM119.84 214H118.84V215H119.84V214ZM136.96 205.44L136.96 204.44H135.96V205.44H136.96ZM136.96 214H135.96V215H136.96V214ZM162.64 214V215H163.64V214H162.64ZM188.32 214V215H189.32V214H188.32ZM179.76 214H178.76L178.76 215H179.76V214ZM214 214V215H215V214H214ZM205.44 214H204.44V215H205.44V214ZM0 0V-1H-1V0H0ZM0 59.92H-1V60.92H0V59.92ZM59.92 59.92V60.92H60.92V59.92H59.92ZM59.92 0H60.92V-1H59.92V0ZM154.08 7.59391e-05V-0.999924H153.08V7.59391e-05H154.08ZM154.08 59.9201H153.08V60.9201H154.08V59.9201ZM214 59.9201V60.9201H215V59.9201H214ZM214 7.59391e-05H215V-0.999924H214V7.59391e-05ZM7.59391e-05 154.08V153.08H-0.999924V154.08H7.59391e-05ZM7.59391e-05 214H-0.999924V215H7.59391e-05V214ZM59.92 214V215H60.92V214H59.92ZM59.92 154.08H60.92V153.08H59.92V154.08ZM17.1201 17.1201V16.1201H16.1201V17.1201H17.1201ZM42.8001 17.1201H43.8001V16.1201H42.8001V17.1201ZM42.8001 42.8001V43.8001H43.8001V42.8001H42.8001ZM17.1201 42.8001H16.1201V43.8001H17.1201V42.8001ZM171.2 17.1201V16.1201H170.2V17.1201H171.2ZM196.88 17.1201H197.88V16.1201H196.88V17.1201ZM196.88 42.8001V43.8001H197.88V42.8001H196.88ZM171.2 42.8001H170.2V43.8001H171.2V42.8001ZM17.1201 171.2V170.2H16.1201V171.2H17.1201ZM42.8001 171.2H43.8001V170.2H42.8001V171.2ZM42.8001 196.88V197.88H43.8001V196.88H42.8001ZM17.1201 196.88H16.1201V197.88H17.1201V196.88ZM68.48 7.59391e-05V1.00008H77.04V7.59391e-05V-0.999924H68.48V7.59391e-05ZM68.48 8.56007H69.48V7.59391e-05H68.48H67.48V8.56007H68.48ZM77.04 7.59391e-05V1.00008H85.6V7.59391e-05V-0.999924H77.04V7.59391e-05ZM85.6 8.56007V7.56007H77.04V8.56007V9.56007H85.6V8.56007ZM85.6 7.59391e-05V1.00008H94.16V7.59391e-05V-0.999924H85.6V7.59391e-05ZM94.16 7.59391e-05H93.16V8.56007H94.16H95.16V7.59391e-05H94.16ZM102.72 7.59391e-05V1.00008H111.28V7.59391e-05V-0.999924H102.72V7.59391e-05ZM111.28 7.59391e-05H110.28V8.56007H111.28H112.28V7.59391e-05H111.28ZM102.72 8.56007H103.72V7.59391e-05H102.72H101.72V8.56007H102.72ZM119.84 7.59391e-05V1.00008H128.4V7.59391e-05V-0.999924H119.84V7.59391e-05ZM128.4 7.59391e-05H127.4V8.56007H128.4H129.4V7.59391e-05H128.4ZM119.84 8.56007H120.84V7.59391e-05H119.84H118.84V8.56007H119.84ZM77.04 8.56007H76.04V17.1201H77.04H78.04V8.56007H77.04ZM68.48 17.1201H69.48V8.56007H68.48H67.48V17.1201H68.48ZM94.16 8.56007H93.16V17.1201H94.16H95.16V8.56007H94.16ZM85.6 17.1201L86.6 17.1201L86.6 8.56007L85.6 8.56007L84.6 8.56007L84.6 17.1201H85.6ZM102.72 17.1201H103.72V8.56007H102.72H101.72V17.1201H102.72ZM111.28 8.56007V9.56007H119.84V8.56007V7.56007H111.28V8.56007ZM128.4 8.56007H127.4V17.1201H128.4H129.4V8.56007H128.4ZM128.4 17.1201V16.1201H119.84V17.1201V18.1201H128.4V17.1201ZM136.96 8.56009V9.56009H145.52V8.56009V7.56009H136.96V8.56009ZM145.52 8.56009H144.52V17.1201H145.52H146.52V8.56009H145.52ZM136.96 17.1201H137.96V8.56009H136.96H135.96V17.1201H136.96ZM77.04 17.1201H76.04V25.6801H77.04H78.04V17.1201H77.04ZM77.04 25.6801V24.6801H68.48V25.6801V26.6801H77.04V25.6801ZM68.48 25.6801H69.48V17.1201H68.48H67.48V25.6801H68.48ZM94.16 25.6801V24.6801H85.6V25.6801V26.6801H94.16V25.6801ZM85.6 25.6801H86.6V17.1201H85.6H84.6V25.6801H85.6ZM94.16 17.1201V18.1201H102.72V17.1201V16.1201H94.16V17.1201ZM102.72 25.6801V24.6801H94.16V25.6801V26.6801H102.72V25.6801ZM119.84 17.1201H118.84V25.6801H119.84H120.84V17.1201H119.84ZM145.52 17.1201H144.52V25.6801H145.52H146.52V17.1201H145.52ZM145.52 25.6801V24.6801H136.96V25.6801V26.6801H145.52V25.6801ZM136.96 25.6801H137.96V17.1201H136.96H135.96V25.6801H136.96ZM77.04 25.6801V26.6801H85.6V25.6801V24.6801H77.04V25.6801ZM85.6 25.6801L84.6 25.6801L84.6 34.24H85.6L86.6 34.24L86.6 25.6801L85.6 25.6801ZM85.6 34.24V33.24H77.04V34.24V35.24H85.6V34.24ZM77.04 34.24H78.04L78.04 25.6801L77.04 25.6801L76.04 25.6801L76.04 34.24L77.04 34.24ZM102.72 34.24H103.72L103.72 25.6801L102.72 25.6801L101.72 25.6801L101.72 34.24L102.72 34.24ZM119.84 25.6801H118.84V34.24H119.84H120.84V25.6801H119.84ZM119.84 34.24V33.24H111.28V34.24V35.24H119.84V34.24ZM68.48 34.24V35.24L77.04 35.24V34.24V33.24L68.48 33.24L68.48 34.24ZM77.04 34.24H76.04L76.04 42.8L77.04 42.8L78.04 42.8L78.04 34.24L77.04 34.24ZM77.04 42.8V41.8H68.48V42.8V43.8H77.04V42.8ZM68.48 42.8H69.48V34.24H68.48H67.48V42.8H68.48ZM85.6 34.24L85.6 35.24L94.16 35.24V34.24V33.24L85.6 33.24V34.24ZM94.16 42.8V41.8H85.6V42.8V43.8H94.16V42.8ZM85.6 42.8H86.6L86.6 34.24H85.6L84.6 34.24L84.6 42.8H85.6ZM94.16 34.24V35.24L102.72 35.24V34.24V33.24L94.16 33.24V34.24ZM111.28 34.24H110.28V42.8H111.28H112.28V34.24H111.28ZM111.28 42.8V41.8H102.72V42.8V43.8H111.28V42.8ZM119.84 34.24V35.24L128.4 35.24V34.24V33.24L119.84 33.24L119.84 34.24ZM128.4 34.24H127.4V42.8H128.4H129.4V34.24H128.4ZM119.84 42.8L120.84 42.8L120.84 34.24L119.84 34.24L118.84 34.24L118.84 42.8L119.84 42.8ZM136.96 34.24V35.24H145.52V34.24V33.24H136.96V34.24ZM145.52 34.24H144.52V42.8H145.52H146.52V34.24H145.52ZM145.52 42.8V41.8H136.96V42.8V43.8H145.52V42.8ZM136.96 42.8H137.96V34.24H136.96H135.96V42.8H136.96ZM102.72 42.8H101.72V51.3601H102.72H103.72V42.8H102.72ZM102.72 51.3601V50.3601H94.16V51.3601V52.3601H102.72V51.3601ZM94.16 51.3601L95.16 51.3601L95.16 42.8H94.16H93.16L93.16 51.3601H94.16ZM128.4 42.8H127.4V51.3601H128.4H129.4V42.8H128.4ZM119.84 51.3601H120.84V42.8H119.84H118.84V51.3601H119.84ZM68.48 51.3601V52.3601H77.04V51.3601V50.3601H68.48V51.3601ZM77.04 51.3601H76.04V59.9201H77.04H78.04V51.3601H77.04ZM77.04 59.9201V58.9201H68.48V59.9201V60.9201H77.04V59.9201ZM68.48 59.9201H69.48V51.3601H68.48H67.48V59.9201H68.48ZM85.6 51.3601V52.3601L94.16 52.3601V51.3601L94.16 50.3601L85.6 50.3601V51.3601ZM94.16 51.3601L93.16 51.3601L93.16 59.9201H94.16L95.16 59.9201L95.16 51.3601H94.16ZM94.16 59.9201V58.9201H85.6V59.9201V60.9201H94.16V59.9201ZM85.6 59.9201H86.6V51.3601H85.6H84.6V59.9201H85.6ZM102.72 51.3601V52.3601L111.28 52.3601V51.3601V50.3601L102.72 50.3601L102.72 51.3601ZM111.28 51.3601H110.28V59.9201H111.28H112.28V51.3601H111.28ZM102.72 59.9201H103.72L103.72 51.3601L102.72 51.3601H101.72L101.72 59.9201L102.72 59.9201ZM128.4 51.3601H127.4V59.9201H128.4H129.4V51.3601H128.4ZM128.4 59.9201V58.9201H119.84V59.9201V60.9201H128.4V59.9201ZM119.84 59.9201H120.84V51.3601H119.84H118.84V59.9201H119.84ZM136.96 51.3601V52.3601H145.52V51.3601V50.3601H136.96V51.3601ZM145.52 51.3601H144.52V59.9201H145.52H146.52V51.3601H145.52ZM145.52 59.9201V58.9201H136.96V59.9201V60.9201H145.52V59.9201ZM136.96 59.9201H137.96V51.3601H136.96H135.96V59.9201H136.96ZM77.04 59.9201V60.9201H85.6V59.9201V58.9201H77.04V59.9201ZM85.6 59.9201H84.6L84.6 68.4801L85.6 68.4801H86.6L86.6 59.9201L85.6 59.9201ZM85.6 68.4801V67.4801H77.04V68.4801V69.4801H85.6V68.4801ZM77.04 68.4801L78.04 68.4801L78.04 59.9201H77.04L76.04 59.9201L76.04 68.4801H77.04ZM111.28 68.4801V67.4801H102.72V68.4801V69.4801H111.28V68.4801ZM102.72 68.4801H103.72V59.9201H102.72H101.72V68.4801H102.72ZM111.28 59.9201V60.9201H119.84V59.9201V58.9201H111.28V59.9201ZM119.84 59.9201L118.84 59.9201L118.84 68.4801L119.84 68.4801H120.84L120.84 59.9201L119.84 59.9201ZM119.84 68.4801V67.4801H111.28V68.4801V69.4801H119.84V68.4801ZM7.59391e-05 68.48V69.48H8.56007V68.48V67.48H7.59391e-05V68.48ZM8.56007 68.48H7.56007V77.04H8.56007H9.56007V68.48H8.56007ZM8.56007 77.04V76.04H7.59391e-05V77.04V78.04H8.56007V77.04ZM7.59391e-05 77.04H1.00008V68.48H7.59391e-05H-0.999924V77.04H7.59391e-05ZM25.6801 68.48V69.48H34.2401V68.48V67.48H25.6801V68.48ZM25.6801 77.04H26.6801V68.48H25.6801H24.6801V77.04H25.6801ZM34.2401 68.48V69.48H42.8001V68.48V67.48H34.2401V68.48ZM42.8001 68.48V69.48H51.36V68.48V67.48H42.8001V68.48ZM51.36 68.48V69.48H59.92V68.48V67.48H51.36V68.48ZM59.92 77.04V76.04H51.36V77.04V78.04H59.92V77.04ZM59.92 68.48V69.48H68.48V68.48V67.48H59.92V68.48ZM68.48 77.04V76.04H59.92V77.04V78.04H68.48V77.04ZM68.48 68.48L68.48 69.48L77.04 69.4801L77.04 68.4801L77.04 67.4801L68.48 67.48L68.48 68.48ZM77.04 68.4801L76.04 68.4801L76.04 77.04L77.04 77.04H78.04L78.04 68.4801H77.04ZM85.6 68.4801L85.6 69.4801L94.16 69.48L94.16 68.48L94.16 67.48L85.6 67.4801L85.6 68.4801ZM85.6 77.04L86.6 77.04L86.6 68.4801L85.6 68.4801H84.6L84.6 77.04H85.6ZM94.16 68.48L94.16 69.48L102.72 69.4801L102.72 68.4801L102.72 67.4801L94.16 67.48L94.16 68.48ZM102.72 68.4801L101.72 68.4801L101.72 77.04L102.72 77.04H103.72L103.72 68.4801H102.72ZM128.4 68.48V69.48H136.96V68.48V67.48H128.4V68.48ZM128.4 77.04H129.4V68.48H128.4H127.4V77.04H128.4ZM136.96 68.48V69.48H145.52V68.48V67.48H136.96V68.48ZM145.52 77.04V76.04H136.96V77.04V78.04H145.52V77.04ZM145.52 68.48V69.48H154.08V68.48V67.48H145.52V68.48ZM154.08 68.48H153.08V77.04H154.08H155.08V68.48H154.08ZM154.08 77.04V76.04H145.52V77.04V78.04H154.08V77.04ZM171.2 68.48V69.48H179.76V68.48V67.48H171.2V68.48ZM179.76 68.48H178.76V77.04H179.76H180.76V68.48H179.76ZM171.2 77.04H172.2V68.48H171.2H170.2V77.04H171.2ZM188.32 68.48V69.48H196.88V68.48V67.48H188.32V68.48ZM188.32 77.04H189.32V68.48H188.32H187.32V77.04H188.32ZM196.88 68.48V69.48H205.44V68.48V67.48H196.88V68.48ZM205.44 68.48V69.48H214V68.48V67.48H205.44V68.48ZM214 68.48H213V77.04H214H215V68.48H214ZM214 77.04V76.04H205.44V77.04V78.04H214V77.04ZM25.6801 85.6H26.6801V77.04H25.6801H24.6801V85.6H25.6801ZM42.8001 85.6V84.6H34.2401V85.6V86.6H42.8001V85.6ZM51.36 77.04H50.36V85.6H51.36H52.36V77.04H51.36ZM51.36 85.6V84.6H42.8001V85.6V86.6H51.36V85.6ZM68.48 85.6H69.48L69.48 77.04L68.48 77.04H67.48L67.48 85.6L68.48 85.6ZM77.04 77.04V78.04H85.6V77.04V76.04H77.04V77.04ZM85.6 85.6V84.6H77.04V85.6V86.6H85.6V85.6ZM94.16 85.6V84.6H85.6V85.6V86.6H94.16V85.6ZM102.72 77.04H101.72V85.6H102.72H103.72V77.04H102.72ZM111.28 77.04V78.04H119.84V77.04V76.04H111.28V77.04ZM111.28 85.6H112.28V77.04H111.28H110.28V85.6H111.28ZM119.84 77.04L119.84 78.04L128.4 78.04V77.04V76.04L119.84 76.04V77.04ZM128.4 85.6V84.6H119.84V85.6V86.6H128.4V85.6ZM136.96 77.04H135.96V85.6H136.96H137.96V77.04H136.96ZM162.64 77.04V78.04L171.2 78.04V77.04V76.04L162.64 76.04V77.04ZM171.2 85.6V84.6H162.64V85.6V86.6H171.2V85.6ZM162.64 85.6H163.64V77.04H162.64H161.64V85.6H162.64ZM179.76 85.6V84.6H171.2V85.6V86.6H179.76V85.6ZM179.76 77.04V78.04H188.32V77.04V76.04H179.76V77.04ZM196.88 85.6V84.6H188.32V85.6V86.6H196.88V85.6ZM205.44 77.04H204.44V85.6H205.44H206.44V77.04H205.44ZM205.44 85.6V84.6H196.88V85.6V86.6H205.44V85.6ZM7.59391e-05 85.6001V86.6001H8.56007V85.6001V84.6001H7.59391e-05V85.6001ZM8.56007 85.6001H7.56007V94.16H8.56007H9.56007V85.6001H8.56007ZM8.56007 94.16V93.16H7.59391e-05V94.16V95.16H8.56007V94.16ZM7.59391e-05 94.16H1.00008V85.6001H7.59391e-05H-0.999924V94.16H7.59391e-05ZM17.1201 85.6001L17.1201 86.6001L25.6801 86.6L25.6801 85.6V84.6L17.1201 84.6001L17.1201 85.6001ZM17.1201 94.16H18.1201V85.6001H17.1201H16.1201V94.16H17.1201ZM34.2401 85.6H33.2401V94.16H34.2401H35.2401V85.6H34.2401ZM51.36 85.6V86.6L59.92 86.6001V85.6001L59.92 84.6001L51.36 84.6L51.36 85.6ZM59.92 94.16V93.16H51.36V94.16V95.16H59.92V94.16ZM51.36 94.16H52.36L52.36 85.6H51.36L50.36 85.6L50.36 94.1601L51.36 94.16ZM59.92 85.6001L59.92 86.6001L68.48 86.6V85.6L68.48 84.6L59.92 84.6001V85.6001ZM68.48 94.16V93.16H59.92V94.16V95.16H68.48V94.16ZM77.04 85.6H76.04V94.16H77.04H78.04V85.6H77.04ZM77.04 94.16V93.16H68.48V94.16V95.16H77.04V94.16ZM102.72 85.6H101.72V94.16H102.72H103.72V85.6H102.72ZM102.72 94.16V93.16H94.16V94.16V95.16H102.72V94.16ZM94.16 94.16H95.16L95.16 85.6H94.16L93.16 85.6L93.16 94.16H94.16ZM119.84 85.6H118.84V94.16H119.84H120.84V85.6H119.84ZM119.84 94.16V93.16H111.28V94.16V95.16H119.84V94.16ZM111.28 94.16H112.28V85.6H111.28H110.28V94.16H111.28ZM136.96 85.6H135.96V94.16H136.96H137.96V85.6H136.96ZM128.4 94.16L129.4 94.1601L129.4 85.6001L128.4 85.6L127.4 85.6L127.4 94.16L128.4 94.16ZM145.52 85.6001V86.6001H154.08V85.6001V84.6001H145.52V85.6001ZM154.08 94.16V93.16H145.52V94.16V95.16H154.08V94.16ZM145.52 94.16H146.52V85.6001H145.52H144.52V94.16H145.52ZM154.08 85.6001V86.6001L162.64 86.6V85.6V84.6L154.08 84.6001V85.6001ZM162.64 85.6H161.64L161.64 94.16H162.64H163.64L163.64 85.6L162.64 85.6ZM188.32 85.6H187.32V94.16H188.32H189.32V85.6H188.32ZM179.76 94.16H180.76L180.76 85.6H179.76L178.76 85.6L178.76 94.1601L179.76 94.16ZM205.44 85.6V86.6L214 86.6001V85.6001V84.6001L205.44 84.6V85.6ZM214 85.6001H213V94.16H214H215V85.6001H214ZM205.44 94.16H206.44L206.44 85.6H205.44L204.44 85.6L204.44 94.1601L205.44 94.16ZM8.56007 94.16V95.16H17.1201V94.16V93.16H8.56007V94.16ZM8.56009 102.72H9.56009L9.56007 94.16H8.56007L7.56007 94.1601L7.56009 102.72H8.56009ZM25.6801 102.72V101.72H17.1201V102.72V103.72H25.6801V102.72ZM34.2401 94.16H33.2401V102.72H34.2401H35.2401V94.16H34.2401ZM34.2401 102.72V101.72H25.6801V102.72V103.72H34.2401V102.72ZM102.72 94.16V95.16H111.28V94.16V93.16H102.72V94.16ZM111.28 94.16H110.28L110.28 102.72H111.28H112.28L112.28 94.16H111.28ZM111.28 102.72V101.72H102.72V102.72V103.72H111.28V102.72ZM102.72 102.72H103.72L103.72 94.16H102.72L101.72 94.1601L101.72 102.72L102.72 102.72ZM128.4 102.72H129.4V94.16H128.4H127.4V102.72H128.4ZM136.96 94.16V95.16H145.52V94.16V93.16H136.96V94.16ZM145.52 94.16H144.52L144.52 102.72H145.52L146.52 102.72L146.52 94.1601L145.52 94.16ZM145.52 102.72V101.72H136.96V102.72V103.72H145.52V102.72ZM154.08 102.72H155.08L155.08 94.16H154.08L153.08 94.1601L153.08 102.72L154.08 102.72ZM162.64 94.16V95.16L171.2 95.1601L171.2 94.1601V93.1601L162.64 93.16V94.16ZM171.2 94.1601V95.1601L179.76 95.16V94.16V93.16L171.2 93.1601L171.2 94.1601ZM179.76 102.72V101.72H171.2V102.72V103.72H179.76V102.72ZM188.32 102.72V101.72H179.76V102.72V103.72H188.32V102.72ZM188.32 94.16V95.16L196.88 95.1601V94.1601V93.1601L188.32 93.16V94.16ZM196.88 102.72V101.72H188.32V102.72V103.72H196.88V102.72ZM196.88 94.1601V95.1601L205.44 95.16V94.16V93.16L196.88 93.1601V94.1601ZM205.44 102.72V101.72H196.88V102.72V103.72H205.44V102.72ZM214 94.16H213V102.72H214H215V94.16H214ZM17.1201 102.72H16.1201V111.28H17.1201H18.1201V102.72H17.1201ZM8.56009 111.28H9.56009V102.72H8.56009H7.56009V111.28H8.56009ZM34.2401 102.72L34.2401 103.72L42.8001 103.72L42.8001 102.72V101.72L34.2401 101.72V102.72ZM34.2401 111.28H35.2401L35.2401 102.72H34.2401L33.2401 102.72L33.2401 111.28H34.2401ZM42.8001 102.72V103.72H51.36V102.72V101.72H42.8001V102.72ZM51.36 111.28V110.28H42.8001V111.28V112.28H51.36V111.28ZM51.36 102.72V103.72H59.92V102.72V101.72H51.36V102.72ZM59.92 102.72H58.92V111.28H59.92H60.92V102.72H59.92ZM59.92 111.28V110.28H51.36V111.28V112.28H59.92V111.28ZM68.48 102.72V103.72H77.04V102.72V101.72H68.48V102.72ZM77.04 111.28V110.28H68.48V111.28V112.28H77.04V111.28ZM68.48 111.28H69.48V102.72H68.48H67.48V111.28H68.48ZM77.04 102.72V103.72H85.6V102.72V101.72H77.04V102.72ZM85.6 111.28V110.28H77.04V111.28V112.28H85.6V111.28ZM85.6 102.72V103.72H94.16V102.72V101.72H85.6V102.72ZM94.16 102.72H93.16V111.28H94.16H95.16V102.72H94.16ZM136.96 102.72H135.96V111.28H136.96H137.96V102.72H136.96ZM128.4 111.28H129.4V102.72H128.4H127.4V111.28H128.4ZM162.64 111.28V110.28H154.08V111.28V112.28H162.64V111.28ZM154.08 111.28H155.08V102.72H154.08H153.08V111.28H154.08ZM171.2 102.72H170.2V111.28H171.2H172.2V102.72H171.2ZM171.2 111.28V110.28H162.64V111.28V112.28H171.2V111.28ZM214 102.72H213V111.28H214H215V102.72H214ZM214 111.28V110.28H205.44V111.28V112.28H214V111.28ZM205.44 111.28H206.44L206.44 102.72H205.44L204.44 102.72L204.44 111.28L205.44 111.28ZM7.59391e-05 111.28L6.85462e-05 112.28L8.56008 112.28L8.56009 111.28L8.56009 110.28L8.33319e-05 110.28L7.59391e-05 111.28ZM7.59391e-05 119.84H1.00008V111.28H7.59391e-05H-0.999924V119.84H7.59391e-05ZM17.1201 111.28L17.1201 112.28L25.6801 112.28L25.6801 111.28L25.6801 110.28L17.1201 110.28L17.1201 111.28ZM25.6801 111.28L25.6801 112.28L34.2401 112.28L34.2401 111.28L34.2401 110.28L25.6801 110.28L25.6801 111.28ZM34.2401 119.84V118.84H25.6801V119.84V120.84H34.2401V119.84ZM42.8001 111.28H41.8001V119.84H42.8001H43.8001V111.28H42.8001ZM42.8001 119.84V118.84H34.2401V119.84V120.84H42.8001V119.84ZM59.92 111.28V112.28H68.48V111.28V110.28H59.92V111.28ZM68.48 111.28H67.48L67.48 119.84H68.48H69.48L69.48 111.28H68.48ZM59.92 119.84H60.92L60.92 111.28H59.92H58.92L58.92 119.84L59.92 119.84ZM94.16 111.28H93.16V119.84H94.16H95.16V111.28H94.16ZM94.16 119.84V118.84H85.6V119.84V120.84H94.16V119.84ZM85.6 119.84H86.6L86.6 111.28H85.6H84.6L84.6 119.84H85.6ZM102.72 111.28V112.28H111.28V111.28V110.28H102.72V111.28ZM111.28 119.84V118.84H102.72V119.84V120.84H111.28V119.84ZM102.72 119.84H103.72V111.28H102.72H101.72V119.84H102.72ZM111.28 111.28V112.28H119.84V111.28V110.28H111.28V111.28ZM119.84 119.84V118.84H111.28V119.84V120.84H119.84V119.84ZM119.84 111.28L119.84 112.28L128.4 112.28V111.28L128.4 110.28L119.84 110.28L119.84 111.28ZM128.4 119.84V118.84H119.84V119.84V120.84H128.4V119.84ZM136.96 111.28V112.28L145.52 112.28V111.28V110.28L136.96 110.28L136.96 111.28ZM145.52 119.84V118.84H136.96V119.84V120.84H145.52V119.84ZM145.52 111.28V112.28L154.08 112.28L154.08 111.28V110.28L145.52 110.28V111.28ZM154.08 111.28H153.08L153.08 119.84H154.08L155.08 119.84L155.08 111.28L154.08 111.28ZM154.08 119.84V118.84H145.52V119.84V120.84H154.08V119.84ZM171.2 111.28V112.28L179.76 112.28V111.28L179.76 110.28L171.2 110.28L171.2 111.28ZM179.76 111.28H178.76V119.84H179.76H180.76V111.28H179.76ZM171.2 119.84H172.2L172.2 111.28H171.2L170.2 111.28L170.2 119.84L171.2 119.84ZM196.88 111.28L196.88 112.28L205.44 112.28L205.44 111.28V110.28L196.88 110.28V111.28ZM205.44 111.28H204.44L204.44 119.84H205.44L206.44 119.84L206.44 111.28L205.44 111.28ZM196.88 119.84H197.88V111.28H196.88H195.88V119.84H196.88ZM7.59391e-05 128.4H1.00008V119.84H7.59391e-05H-0.999924V128.4H7.59391e-05ZM17.1201 128.4V127.4H8.56007V128.4V129.4H17.1201V128.4ZM25.6801 119.84H24.6801V128.4H25.6801H26.6801V119.84H25.6801ZM25.6801 128.4V127.4H17.1201V128.4V129.4H25.6801V128.4ZM42.8001 119.84L42.8001 120.84L51.36 120.84V119.84L51.36 118.84L42.8001 118.84V119.84ZM42.8 128.4L43.8 128.4L43.8001 119.84L42.8001 119.84L41.8001 119.84L41.8 128.4L42.8 128.4ZM51.36 119.84L51.36 120.84L59.92 120.84L59.92 119.84L59.92 118.84L51.36 118.84V119.84ZM59.92 128.4V127.4H51.36V128.4V129.4H59.92V128.4ZM68.48 119.84H67.48V128.4H68.48H69.48V119.84H68.48ZM136.96 119.84H135.96V128.4H136.96H137.96V119.84H136.96ZM128.4 128.4L129.4 128.4L129.4 119.84L128.4 119.84L127.4 119.84L127.4 128.4L128.4 128.4ZM154.08 119.84V120.84L162.64 120.84V119.84V118.84L154.08 118.84V119.84ZM162.64 119.84H161.64V128.4H162.64H163.64V119.84H162.64ZM162.64 128.4V127.4H154.08V128.4V129.4H162.64V128.4ZM154.08 128.4H155.08L155.08 119.84H154.08L153.08 119.84L153.08 128.4H154.08ZM179.76 128.4V127.4H171.2V128.4V129.4H179.76V128.4ZM171.2 128.4H172.2V119.84H171.2H170.2V128.4H171.2ZM179.76 119.84V120.84L188.32 120.84V119.84V118.84L179.76 118.84V119.84ZM188.32 119.84V120.84L196.88 120.84V119.84V118.84L188.32 118.84V119.84ZM205.44 128.4V127.4H196.88V128.4V129.4H205.44V128.4ZM205.44 119.84V120.84L214 120.84V119.84V118.84L205.44 118.84V119.84ZM214 119.84H213V128.4H214H215V119.84H214ZM8.56007 128.4H7.56007V136.96H8.56007H9.56007V128.4H8.56007ZM7.59391e-05 136.96H1.00008V128.4H7.59391e-05H-0.999924V136.96H7.59391e-05ZM25.6801 128.4L25.6801 129.4L34.2401 129.4L34.2401 128.4V127.4L25.6801 127.4L25.6801 128.4ZM34.2401 128.4H33.2401V136.96H34.2401H35.2401V128.4H34.2401ZM25.6801 136.96L26.6801 136.96L26.6801 128.4H25.6801H24.6801L24.6801 136.96H25.6801ZM51.36 128.4H50.36V136.96H51.36H52.36V128.4H51.36ZM51.36 136.96V135.96H42.8V136.96V137.96H51.36V136.96ZM42.8 136.96H43.8V128.4H42.8H41.8V136.96H42.8ZM68.48 128.4H67.48V136.96H68.48H69.48V128.4H68.48ZM59.92 136.96L60.92 136.96L60.92 128.4H59.92H58.92L58.92 136.96H59.92ZM85.6 128.4V129.4H94.16V128.4V127.4H85.6V128.4ZM94.16 128.4H93.16V136.96H94.16H95.16V128.4H94.16ZM94.16 136.96V135.96H85.6V136.96V137.96H94.16V136.96ZM85.6 136.96H86.6V128.4H85.6H84.6V136.96H85.6ZM102.72 128.4V129.4H111.28V128.4V127.4H102.72V128.4ZM111.28 128.4H110.28V136.96H111.28H112.28V128.4H111.28ZM102.72 136.96H103.72V128.4H102.72H101.72V136.96H102.72ZM136.96 136.96V135.96H128.4V136.96V137.96H136.96V136.96ZM128.4 136.96H129.4V128.4H128.4H127.4V136.96H128.4ZM136.96 128.4V129.4L145.52 129.4V128.4V127.4L136.96 127.4V128.4ZM145.52 128.4V129.4L154.08 129.4V128.4V127.4L145.52 127.4V128.4ZM154.08 128.4H153.08L153.08 136.96L154.08 136.96H155.08L155.08 128.4H154.08ZM162.64 128.4V129.4H171.2V128.4V127.4H162.64V128.4ZM171.2 128.4H170.2L170.2 136.96L171.2 136.96H172.2L172.2 128.4H171.2ZM162.64 136.96L163.64 136.96L163.64 128.4H162.64H161.64L161.64 136.96H162.64ZM188.32 136.96V135.96H179.76V136.96V137.96H188.32V136.96ZM179.76 136.96L180.76 136.96L180.76 128.4H179.76H178.76L178.76 136.96H179.76ZM196.88 128.4H195.88V136.96H196.88H197.88V128.4H196.88ZM214 128.4H213V136.96H214H215V128.4H214ZM214 136.96V135.96H205.44V136.96V137.96H214V136.96ZM205.44 136.96L206.44 136.96L206.44 128.4H205.44H204.44L204.44 136.96H205.44ZM8.56007 136.96H7.56007V145.52H8.56007H9.56007V136.96H8.56007ZM8.56007 145.52V144.52H7.59391e-05V145.52V146.52H8.56007V145.52ZM7.59391e-05 145.52H1.00008V136.96H7.59391e-05H-0.999924V145.52H7.59391e-05ZM17.1201 136.96L17.1201 137.96L25.6801 137.96L25.6801 136.96L25.6801 135.96L17.1201 135.96L17.1201 136.96ZM25.6801 145.52V144.52H17.1201V145.52V146.52H25.6801V145.52ZM17.1201 145.52H18.1201V136.96H17.1201H16.1201V145.52H17.1201ZM34.2401 145.52V144.52H25.6801V145.52V146.52H34.2401V145.52ZM34.2401 136.96V137.96H42.8V136.96V135.96H34.2401V136.96ZM42.8 136.96L41.8 136.96L41.8001 145.52L42.8001 145.52L43.8001 145.52L43.8 136.96L42.8 136.96ZM42.8001 145.52V144.52H34.2401V145.52V146.52H42.8001V145.52ZM51.36 136.96V137.96H59.92V136.96V135.96H51.36V136.96ZM59.92 145.52V144.52H51.36V145.52V146.52H59.92V145.52ZM51.36 145.52H52.36L52.36 136.96L51.36 136.96H50.36L50.36 145.52H51.36ZM68.48 145.52V144.52H59.92V145.52V146.52H68.48V145.52ZM68.48 136.96L68.48 137.96L77.04 137.96V136.96L77.04 135.96L68.48 135.96V136.96ZM77.04 136.96H76.04V145.52H77.04H78.04V136.96H77.04ZM94.16 136.96V137.96H102.72V136.96V135.96H94.16V136.96ZM94.16 145.52H95.16L95.16 136.96L94.16 136.96H93.16L93.16 145.52H94.16ZM111.28 145.52V144.52H102.72V145.52V146.52H111.28V145.52ZM111.28 136.96L111.28 137.96L119.84 137.96V136.96L119.84 135.96L111.28 135.96V136.96ZM119.84 136.96H118.84V145.52H119.84H120.84V136.96H119.84ZM136.96 145.52H137.96L137.96 136.96L136.96 136.96H135.96L135.96 145.52H136.96ZM154.08 145.52V144.52H145.52V145.52V146.52H154.08V145.52ZM154.08 136.96V137.96H162.64V136.96V135.96H154.08V136.96ZM162.64 145.52V144.52H154.08V145.52V146.52H162.64V145.52ZM171.2 145.52V144.52H162.64V145.52V146.52H171.2V145.52ZM171.2 136.96V137.96H179.76V136.96V135.96H171.2V136.96ZM179.76 136.96L178.76 136.96L178.76 145.52H179.76H180.76L180.76 136.96H179.76ZM188.32 145.52H189.32L189.32 136.96L188.32 136.96H187.32L187.32 145.52H188.32ZM196.88 136.96V137.96H205.44V136.96V135.96H196.88V136.96ZM205.44 136.96L204.44 136.96L204.44 145.52H205.44H206.44L206.44 136.96H205.44ZM77.04 145.52H76.04V154.08H77.04H78.04V145.52H77.04ZM68.48 154.08H69.48L69.48 145.52H68.48H67.48L67.48 154.08L68.48 154.08ZM85.6 145.52L85.6 146.52L94.16 146.52L94.16 145.52L94.16 144.52L85.6 144.52L85.6 145.52ZM94.16 154.08V153.08H85.6V154.08V155.08H94.16V154.08ZM85.6 154.08H86.6V145.52H85.6H84.6V154.08H85.6ZM102.72 145.52H101.72V154.08H102.72H103.72V145.52H102.72ZM102.72 154.08V153.08H94.16V154.08V155.08H102.72V154.08ZM119.84 145.52H118.84V154.08H119.84H120.84V145.52H119.84ZM119.84 154.08V153.08H111.28V154.08V155.08H119.84V154.08ZM111.28 154.08H112.28L112.28 145.52H111.28H110.28L110.28 154.08L111.28 154.08ZM145.52 145.52H144.52V154.08H145.52H146.52V145.52H145.52ZM136.96 154.08H137.96V145.52H136.96H135.96V154.08H136.96ZM179.76 145.52H178.76V154.08H179.76H180.76V145.52H179.76ZM171.2 154.08H172.2L172.2 145.52H171.2H170.2L170.2 154.08L171.2 154.08ZM196.88 154.08V153.08H188.32V154.08V155.08H196.88V154.08ZM188.32 154.08H189.32V145.52H188.32H187.32V154.08H188.32ZM205.44 145.52H204.44V154.08H205.44H206.44V145.52H205.44ZM205.44 154.08V153.08H196.88V154.08V155.08H205.44V154.08ZM68.48 162.64H69.48V154.08H68.48H67.48V162.64H68.48ZM77.04 154.08V155.08H85.6V154.08V153.08H77.04V154.08ZM85.6 154.08H84.6L84.6 162.64H85.6H86.6L86.6 154.08L85.6 154.08ZM102.72 154.08V155.08H111.28V154.08V153.08H102.72V154.08ZM111.28 154.08H110.28L110.28 162.64H111.28H112.28L112.28 154.08L111.28 154.08ZM111.28 162.64V161.64H102.72V162.64V163.64H111.28V162.64ZM102.72 162.64H103.72L103.72 154.08H102.72L101.72 154.08L101.72 162.64H102.72ZM145.52 154.08H144.52V162.64H145.52H146.52V154.08H145.52ZM136.96 162.64H137.96V154.08H136.96H135.96V162.64H136.96ZM154.08 154.08V155.08H162.64V154.08V153.08H154.08V154.08ZM162.64 154.08H161.64V162.64H162.64H163.64V154.08H162.64ZM162.64 162.64V161.64H154.08V162.64V163.64H162.64V162.64ZM154.08 162.64H155.08V154.08H154.08H153.08V162.64H154.08ZM179.76 154.08H178.76V162.64H179.76H180.76V154.08H179.76ZM171.2 162.64H172.2V154.08H171.2H170.2V162.64H171.2ZM205.44 154.08V155.08L214 155.08V154.08V153.08L205.44 153.08V154.08ZM214 154.08H213V162.64H214H215V154.08H214ZM205.44 162.64H206.44L206.44 154.08H205.44L204.44 154.08L204.44 162.64H205.44ZM68.48 171.2H69.48V162.64H68.48H67.48V171.2H68.48ZM85.6 162.64L85.6 163.64L94.16 163.64V162.64V161.64L85.6 161.64V162.64ZM94.16 162.64V163.64L102.72 163.64V162.64V161.64L94.16 161.64V162.64ZM102.72 162.64H101.72L101.72 171.2H102.72L103.72 171.2L103.72 162.64H102.72ZM111.28 162.64V163.64L119.84 163.64V162.64L119.84 161.64L111.28 161.64V162.64ZM119.84 162.64H118.84V171.2H119.84H120.84V162.64H119.84ZM119.84 171.2V170.2H111.28V171.2V172.2H119.84V171.2ZM111.28 171.2H112.28L112.28 162.64H111.28H110.28L110.28 171.2L111.28 171.2ZM128.4 162.64V163.64L136.96 163.64V162.64L136.96 161.64L128.4 161.64V162.64ZM128.4 171.2H129.4V162.64H128.4H127.4V171.2H128.4ZM145.52 162.64H144.52V171.2H145.52H146.52V162.64H145.52ZM179.76 162.64H178.76V171.2H179.76H180.76V162.64H179.76ZM171.2 171.2H172.2V162.64H171.2H170.2V171.2H171.2ZM214 162.64H213V171.2H214H215V162.64H214ZM214 171.2V170.2H205.44V171.2V172.2H214V171.2ZM205.44 171.2H206.44V162.64H205.44H204.44V171.2H205.44ZM68.48 179.76H69.48V171.2H68.48H67.48V179.76H68.48ZM94.16 179.76V178.76H85.6V179.76V180.76H94.16V179.76ZM102.72 179.76V178.76H94.16V179.76V180.76H102.72V179.76ZM102.72 171.2V172.2H111.28V171.2V170.2H102.72V171.2ZM111.28 171.2H110.28L110.28 179.76H111.28H112.28L112.28 171.2L111.28 171.2ZM119.84 171.2V172.2H128.4V171.2V170.2H119.84V171.2ZM119.84 179.76H120.84L120.84 171.2H119.84L118.84 171.2L118.84 179.76H119.84ZM145.52 171.2V172.2L154.08 172.2V171.2V170.2L145.52 170.2V171.2ZM154.08 171.2V172.2H162.64V171.2V170.2H154.08V171.2ZM162.64 171.2V172.2L171.2 172.2V171.2V170.2L162.64 170.2V171.2ZM171.2 179.76V178.76H162.64V179.76V180.76H171.2V179.76ZM179.76 171.2H178.76V179.76H179.76H180.76V171.2H179.76ZM179.76 179.76V178.76H171.2V179.76V180.76H179.76V179.76ZM77.04 188.32V187.32H68.48V188.32V189.32H77.04V188.32ZM68.48 188.32H69.48V179.76H68.48H67.48V188.32H68.48ZM85.6 179.76H84.6V188.32H85.6H86.6V179.76H85.6ZM111.28 188.32V187.32H102.72V188.32V189.32H111.28V188.32ZM102.72 188.32H103.72L103.72 179.76H102.72H101.72L101.72 188.32H102.72ZM111.28 179.76V180.76H119.84V179.76V178.76H111.28V179.76ZM119.84 188.32V187.32H111.28V188.32V189.32H119.84V188.32ZM128.4 188.32V187.32H119.84V188.32V189.32H128.4V188.32ZM136.96 188.32V187.32H128.4V188.32V189.32H136.96V188.32ZM145.52 188.32V187.32H136.96V188.32V189.32H145.52V188.32ZM162.64 179.76H161.64V188.32H162.64H163.64V179.76H162.64ZM162.64 188.32V187.32H154.08V188.32V189.32H162.64V188.32ZM196.88 179.76V180.76H205.44V179.76V178.76H196.88V179.76ZM196.88 188.32H197.88V179.76H196.88H195.88V188.32H196.88ZM205.44 179.76V180.76H214V179.76V178.76H205.44V179.76ZM214 179.76H213V188.32H214H215V179.76H214ZM85.6 188.32H84.6V196.88H85.6H86.6V188.32H85.6ZM77.04 196.88H78.04L78.04 188.32H77.04H76.04L76.04 196.88H77.04ZM94.16 188.32V189.32L102.72 189.32V188.32V187.32L94.16 187.32L94.16 188.32ZM102.72 188.32H101.72L101.72 196.88H102.72H103.72L103.72 188.32H102.72ZM102.72 196.88V195.88H94.16V196.88V197.88H102.72V196.88ZM94.16 196.88H95.16V188.32H94.16H93.16V196.88H94.16ZM154.08 188.32H153.08V196.88H154.08H155.08V188.32H154.08ZM145.52 196.88L146.52 196.88L146.52 188.32H145.52H144.52L144.52 196.88H145.52ZM171.2 188.32V189.32H179.76V188.32V187.32H171.2V188.32ZM171.2 196.88H172.2V188.32H171.2H170.2V196.88H171.2ZM179.76 188.32V189.32H188.32V188.32V187.32H179.76V188.32ZM188.32 196.88V195.88H179.76V196.88V197.88H188.32V196.88ZM188.32 188.32V189.32L196.88 189.32V188.32V187.32L188.32 187.32V188.32ZM214 188.32H213V196.88H214H215V188.32H214ZM85.6 196.88H84.6V205.44H85.6H86.6V196.88H85.6ZM77.04 205.44H78.04V196.88H77.04H76.04V205.44H77.04ZM119.84 196.88V197.88H128.4V196.88V195.88H119.84V196.88ZM128.4 196.88H127.4V205.44H128.4H129.4V196.88H128.4ZM119.84 205.44H120.84V196.88H119.84H118.84V205.44H119.84ZM154.08 196.88H153.08V205.44H154.08H155.08V196.88H154.08ZM145.52 205.44H146.52V196.88H145.52H144.52V205.44H145.52ZM162.64 196.88V197.88L171.2 197.88V196.88L171.2 195.88L162.64 195.88L162.64 196.88ZM171.2 205.44V204.44H162.64V205.44V206.44H171.2V205.44ZM162.64 205.44H163.64V196.88H162.64H161.64V205.44H162.64ZM179.76 196.88H178.76V205.44H179.76H180.76V196.88H179.76ZM179.76 205.44V204.44H171.2V205.44V206.44H179.76V205.44ZM196.88 205.44V204.44H188.32V205.44V206.44H196.88V205.44ZM188.32 205.44H189.32L189.32 196.88H188.32H187.32L187.32 205.44H188.32ZM205.44 205.44V204.44H196.88V205.44V206.44H205.44V205.44ZM214 196.88H213V205.44H214H215V196.88H214ZM68.48 205.44V206.44L77.04 206.44V205.44L77.04 204.44L68.48 204.44L68.48 205.44ZM77.04 214V213H68.48V214V215H77.04V214ZM68.48 214H69.48V205.44H68.48H67.48V214H68.48ZM85.6 214V213H77.04V214V215H85.6V214ZM85.6 205.44L85.6 206.44L94.16 206.44V205.44V204.44L85.6 204.44V205.44ZM94.16 205.44H93.16V214H94.16H95.16V205.44H94.16ZM94.16 214V213H85.6V214V215H94.16V214ZM102.72 205.44V206.44H111.28V205.44V204.44H102.72V205.44ZM111.28 205.44H110.28V214H111.28H112.28V205.44H111.28ZM111.28 214V213H102.72V214V215H111.28V214ZM102.72 214H103.72V205.44H102.72H101.72V214H102.72ZM128.4 205.44H127.4V214H128.4H129.4V205.44H128.4ZM128.4 214V213H119.84V214V215H128.4V214ZM119.84 214H120.84V205.44H119.84H118.84V214H119.84ZM136.96 205.44V206.44L145.52 206.44V205.44L145.52 204.44L136.96 204.44L136.96 205.44ZM145.52 214V213H136.96V214V215H145.52V214ZM136.96 214H137.96V205.44H136.96H135.96V214H136.96ZM154.08 214V213H145.52V214V215H154.08V214ZM154.08 205.44V206.44H162.64V205.44V204.44H154.08V205.44ZM162.64 205.44H161.64L161.64 214H162.64H163.64L163.64 205.44H162.64ZM162.64 214V213H154.08V214V215H162.64V214ZM179.76 205.44V206.44H188.32V205.44V204.44H179.76V205.44ZM188.32 205.44H187.32L187.32 214H188.32H189.32L189.32 205.44H188.32ZM188.32 214V213H179.76V214V215H188.32V214ZM179.76 214L180.76 214L180.76 205.44H179.76H178.76L178.76 214H179.76ZM214 205.44H213V214H214H215V205.44H214ZM214 214V213H205.44V214V215H214V214ZM205.44 214L206.44 214L206.44 205.44H205.44H204.44L204.44 214H205.44ZM17.1201 17.1201V18.1201H42.8001V17.1201V16.1201H17.1201V17.1201ZM42.8001 17.1201H41.8001V42.8001H42.8001H43.8001V17.1201H42.8001ZM42.8001 42.8001V41.8001H17.1201V42.8001V43.8001H42.8001V42.8001ZM17.1201 42.8001H18.1201V17.1201H17.1201H16.1201V42.8001H17.1201ZM171.2 17.1201V18.1201H196.88V17.1201V16.1201H171.2V17.1201ZM196.88 17.1201H195.88V42.8001H196.88H197.88V17.1201H196.88ZM196.88 42.8001V41.8001H171.2V42.8001V43.8001H196.88V42.8001ZM171.2 42.8001H172.2V17.1201H171.2H170.2V42.8001H171.2ZM17.1201 171.2V172.2H42.8001V171.2V170.2H17.1201V171.2ZM42.8001 171.2H41.8001V196.88H42.8001H43.8001V171.2H42.8001ZM42.8001 196.88V195.88H17.1201V196.88V197.88H42.8001V196.88ZM17.1201 196.88H18.1201V171.2H17.1201H16.1201V196.88H17.1201ZM59.92 0V-1H0V0V1H59.92V0ZM0 0H-1V59.92H0H1V0H0ZM0 59.92V60.92H59.92V59.92V58.92H0V59.92ZM59.92 59.92H60.92V0H59.92H58.92V59.92H59.92ZM214 7.59391e-05V-0.999924H154.08V7.59391e-05V1.00008H214V7.59391e-05ZM154.08 7.59391e-05H153.08V59.9201H154.08H155.08V7.59391e-05H154.08ZM154.08 59.9201V60.9201H214V59.9201V58.9201H154.08V59.9201ZM214 59.9201H215V7.59391e-05H214H213V59.9201H214ZM59.92 154.08V153.08H7.59391e-05V154.08V155.08H59.92V154.08ZM7.59391e-05 154.08H-0.999924V214H7.59391e-05H1.00008V154.08H7.59391e-05ZM7.59391e-05 214V215H59.92V214V213H7.59391e-05V214ZM59.92 214H60.92V154.08H59.92H58.92V214H59.92Z" fill="#E3EDF7" mask="url(#path-1-inside-1_26583_291)"/>
</svg>
