<svg width="37" height="37" viewBox="0 0 37 37" fill="none" xmlns="http://www.w3.org/2000/svg">
<path d="M22.1163 3.96808C22.1163 2.67403 21.0673 1.625 19.7733 1.625H17.227C15.9331 1.625 14.8842 2.67391 14.8842 3.96781V4.19487C14.8842 5.10892 14.2624 5.89912 13.4182 6.24968C12.5739 6.60031 11.5893 6.47435 10.9428 5.82789L10.7822 5.66722C9.8672 4.75225 8.38374 4.75225 7.46876 5.66722L5.66796 7.46803C4.75316 8.38283 4.75316 9.86601 5.66796 10.7808L5.82798 10.9408C6.47478 11.5876 6.60072 12.5728 6.24984 13.4175C5.89909 14.2619 5.1086 14.884 4.19422 14.884H3.96779C2.6739 14.884 1.625 15.9329 1.625 17.2268V19.7733C1.625 21.0672 2.67392 22.1161 3.96783 22.1161H4.19452C5.10875 22.1161 5.89911 22.738 6.2498 23.5823C6.6006 24.4269 6.47466 25.4118 5.82798 26.0585L5.66762 26.2189C4.7527 27.1338 4.7527 28.6172 5.66762 29.5321L7.46811 31.3326C8.38313 32.2476 9.86668 32.2476 10.7817 31.3326L10.9423 31.172C11.5889 30.5254 12.5736 30.3995 13.4181 30.7502C14.2623 31.1008 14.8842 31.8911 14.8842 32.8052V33.0321C14.8842 34.3261 15.9331 35.375 17.2271 35.375H19.7732C21.0673 35.375 22.1163 34.3259 22.1163 33.0319V32.8049C22.1163 31.8908 22.7382 31.1004 23.5825 30.7497C24.427 30.3989 25.412 30.5248 26.0587 31.1715L26.2194 31.3322C27.1345 32.2474 28.6183 32.2474 29.5335 31.3322L31.333 29.5327C32.2483 28.6174 32.2483 27.1334 31.333 26.218L31.1716 26.0567C30.5252 25.4103 30.3993 24.4259 30.7499 23.5817C31.1004 22.7378 31.8904 22.1161 32.8043 22.1161H33.0319C34.3259 22.1161 35.375 21.067 35.375 19.773V17.2271C35.375 15.933 34.326 14.884 33.0319 14.884H32.8046C31.8906 14.884 31.1004 14.2622 30.7499 13.4181C30.3992 12.5738 30.5251 11.5892 31.1716 10.9427L31.3326 10.7817C32.2478 9.86647 32.2478 8.38262 31.3326 7.46741L29.5328 5.66761C28.6177 4.75249 27.134 4.75249 26.2189 5.66761L26.0581 5.82838C25.4115 6.47497 24.4267 6.60089 23.5823 6.25012C22.7381 5.89949 22.1163 5.10925 22.1163 4.19518V3.96808Z" stroke="#8B9EB0" stroke-width="1.5" stroke-linecap="round"/>
<path d="M25.7317 18.5001C25.7317 22.4943 22.4938 25.7322 18.4996 25.7322C14.5054 25.7322 11.2674 22.4943 11.2674 18.5001C11.2674 14.5059 14.5054 11.2679 18.4996 11.2679C22.4938 11.2679 25.7317 14.5059 25.7317 18.5001Z" stroke="#8B9EB0" stroke-width="1.5" stroke-linecap="round"/>
</svg>
