<svg width="24" height="24" viewBox="0 0 24 24" fill="none" xmlns="http://www.w3.org/2000/svg">
<g clip-path="url(#clip0_28651_85)">
<g filter="url(#filter0_i_28651_85)">
<path d="M10.6043 14.4044L20.1999 24L1.0087 24L10.6043 14.4044ZM21.2085 10.9236L21.2085 22.9912L11.6131 13.3957L13.5303 11.4785C13.4937 11.434 13.4571 11.3894 13.4204 11.3445C13.1606 11.0279 12.8928 10.7011 12.6347 10.3565L2.00996e-06 22.9912L2.85601e-07 3.26689C2.62645e-07 3.0043 0.212943 2.79136 0.47553 2.79136L12.0261 2.79136C13.1124 1.1135 14.9995 -1.31129e-06 17.1428 -1.49867e-06C20.5025 -1.79238e-06 23.2358 2.73334 23.2358 6.09296C23.2359 8.21459 22.2204 9.66847 21.2085 10.9236ZM9.35453 7.65042L5.83009 7.65042L5.83009 8.99303L7.90626 8.99303C7.62246 9.86867 6.79903 10.5036 5.83009 10.5036C4.627 10.5036 3.64827 9.52487 3.64827 8.32177C3.64827 7.11868 4.6271 6.13995 5.83009 6.13995C6.31609 6.13995 6.77573 6.29611 7.15948 6.59151L7.97854 5.52765C7.35797 5.04984 6.615 4.79734 5.83009 4.79734C3.8867 4.79734 2.30556 6.37847 2.30556 8.32187C2.30556 10.2653 3.8866 11.8464 5.83009 11.8464C7.77349 11.8464 9.35463 10.2653 9.35463 8.32187L9.35463 7.65042L9.35453 7.65042ZM21.8093 6.09296C21.8093 3.51578 19.7201 1.42659 17.1429 1.42659C14.5657 1.42659 12.4766 3.51588 12.4766 6.09296C12.4766 9.96701 16.8573 11.0771 16.8573 15.6925L17.143 15.6925L17.4287 15.6925C17.4285 11.0772 21.8093 9.96711 21.8093 6.09296ZM17.1428 3.95879C16.1385 3.95879 15.3244 4.77289 15.3244 5.77712C15.3244 6.78144 16.1386 7.59554 17.1428 7.59554C18.1472 7.59554 18.9613 6.78134 18.9613 5.77712C18.9613 4.77289 18.1472 3.95879 17.1428 3.95879Z" fill="#8C9FB1"/>
</g>
</g>
<defs>
<filter id="filter0_i_28651_85" x="0" y="0" width="23.2358" height="25" filterUnits="userSpaceOnUse" color-interpolation-filters="sRGB">
<feFlood flood-opacity="0" result="BackgroundImageFix"/>
<feBlend mode="normal" in="SourceGraphic" in2="BackgroundImageFix" result="shape"/>
<feColorMatrix in="SourceAlpha" type="matrix" values="0 0 0 0 0 0 0 0 0 0 0 0 0 0 0 0 0 0 127 0" result="hardAlpha"/>
<feOffset dy="1"/>
<feGaussianBlur stdDeviation="1"/>
<feComposite in2="hardAlpha" operator="arithmetic" k2="-1" k3="1"/>
<feColorMatrix type="matrix" values="0 0 0 0 0.351493 0 0 0 0 0.39658 0 0 0 0 0.441667 0 0 0 1 0"/>
<feBlend mode="normal" in2="shape" result="effect1_innerShadow_28651_85"/>
</filter>
<clipPath id="clip0_28651_85">
<rect width="24" height="24" fill="white"/>
</clipPath>
</defs>
</svg>
