<svg width="82" height="62" viewBox="0 0 82 62" fill="none" xmlns="http://www.w3.org/2000/svg">
<g filter="url(#filter0_dd_26581_80)">
<mask id="path-1-inside-1_26581_80" fill="white">
<path d="M28 13C19.7157 13 13 19.7157 13 28C13 36.2843 19.7157 43 28 43C29.5863 43 31.1149 42.7536 32.5498 42.297C35.8373 41.251 39.6627 41.251 42.9502 42.297C44.3851 42.7536 45.9137 43 47.5 43C55.7843 43 62.5 36.2843 62.5 28C62.5 19.7157 55.7843 13 47.5 13C45.9137 13 44.385 13.2463 42.95 13.7028C39.6626 14.7484 35.8374 14.7484 32.55 13.7028C31.115 13.2463 29.5863 13 28 13Z"/>
</mask>
<path d="M28 13C19.7157 13 13 19.7157 13 28C13 36.2843 19.7157 43 28 43C29.5863 43 31.1149 42.7536 32.5498 42.297C35.8373 41.251 39.6627 41.251 42.9502 42.297C44.3851 42.7536 45.9137 43 47.5 43C55.7843 43 62.5 36.2843 62.5 28C62.5 19.7157 55.7843 13 47.5 13C45.9137 13 44.385 13.2463 42.95 13.7028C39.6626 14.7484 35.8374 14.7484 32.55 13.7028C31.115 13.2463 29.5863 13 28 13Z" fill="#E3EDF7"/>
<path d="M28 13V12V13ZM28 43V42V43ZM47.5 43V44V43ZM62.5 28H63.5H62.5ZM47.5 13V12V13ZM42.9502 42.297L43.2534 41.3441L42.9502 42.297ZM28 13V14C20.268 14 14 20.268 14 28H13H12C12 19.1634 19.1634 12 28 12V13ZM13 28H14C14 35.732 20.268 42 28 42V43V44C19.1634 44 12 36.8366 12 28H13ZM28 43V42C29.4822 42 30.9085 41.7698 32.2466 41.3441L32.5498 42.297L32.853 43.2499C31.3212 43.7373 29.6904 44 28 44V43ZM42.9502 42.297L43.2534 41.3441C44.5915 41.7698 46.0178 42 47.5 42V43V44C45.8096 44 44.1788 43.7373 42.647 43.2499L42.9502 42.297ZM47.5 43V42C55.232 42 61.5 35.732 61.5 28H62.5H63.5C63.5 36.8366 56.3366 44 47.5 44V43ZM62.5 28H61.5C61.5 20.268 55.232 14 47.5 14V13V12C56.3366 12 63.5 19.1634 63.5 28H62.5ZM47.5 13V14C46.0178 14 44.5913 14.2301 43.2531 14.6557L42.95 13.7028L42.6469 12.7498C44.1788 12.2626 45.8096 12 47.5 12V13ZM32.55 13.7028L32.2469 14.6557C30.9087 14.2301 29.4822 14 28 14V13V12C29.6904 12 31.3212 12.2626 32.8531 12.7498L32.55 13.7028ZM42.95 13.7028L43.2531 14.6557C39.7685 15.7641 35.7315 15.7641 32.2469 14.6557L32.55 13.7028L32.8531 12.7498C35.9433 13.7327 39.5567 13.7327 42.6469 12.7498L42.95 13.7028ZM32.5498 42.297L32.2466 41.3441C35.7314 40.2353 39.7686 40.2353 43.2534 41.3441L42.9502 42.297L42.647 43.2499C39.5567 42.2667 35.9433 42.2667 32.853 43.2499L32.5498 42.297Z" fill="url(#paint0_linear_26581_80)" mask="url(#path-1-inside-1_26581_80)"/>
</g>
<g opacity="0.7">
<mask id="path-3-outside-2_26581_80" maskUnits="userSpaceOnUse" x="31" y="14.6006" width="13" height="27" fill="black">
<rect fill="white" x="31" y="14.6006" width="13" height="27"/>
<path fill-rule="evenodd" clip-rule="evenodd" d="M37.75 16.6006C40.9635 19.3517 43 23.438 43 27.9999C43 32.5619 40.9635 36.6482 37.75 39.3993C34.5365 36.6482 32.5 32.5619 32.5 27.9999C32.5 23.438 34.5365 19.3517 37.75 16.6006Z"/>
</mask>
<path fill-rule="evenodd" clip-rule="evenodd" d="M37.75 16.6006C40.9635 19.3517 43 23.438 43 27.9999C43 32.5619 40.9635 36.6482 37.75 39.3993C34.5365 36.6482 32.5 32.5619 32.5 27.9999C32.5 23.438 34.5365 19.3517 37.75 16.6006Z" fill="#F8FAFB"/>
<path d="M37.75 16.6006L37.0997 15.8409L37.75 15.2842L38.4003 15.8409L37.75 16.6006ZM37.75 39.3993L38.4003 40.159L37.75 40.7157L37.0997 40.159L37.75 39.3993ZM37.75 16.6006L38.4003 15.8409C41.8263 18.7739 44 23.1336 44 27.9999H43H42C42 23.7424 40.1007 19.9294 37.0997 17.3602L37.75 16.6006ZM43 27.9999H44C44 32.8663 41.8263 37.226 38.4003 40.159L37.75 39.3993L37.0997 38.6397C40.1007 36.0704 42 32.2575 42 27.9999H43ZM37.75 39.3993L37.0997 40.159C33.6737 37.226 31.5 32.8663 31.5 27.9999H32.5H33.5C33.5 32.2575 35.3993 36.0704 38.4003 38.6397L37.75 39.3993ZM32.5 27.9999H31.5C31.5 23.1336 33.6737 18.7739 37.0997 15.8409L37.75 16.6006L38.4003 17.3602C35.3993 19.9294 33.5 23.7424 33.5 27.9999H32.5Z" fill="url(#paint1_radial_26581_80)" mask="url(#path-3-outside-2_26581_80)"/>
</g>
<defs>
<filter id="filter0_dd_26581_80" x="0" y="0" width="81.5" height="62" filterUnits="userSpaceOnUse" color-interpolation-filters="sRGB">
<feFlood flood-opacity="0" result="BackgroundImageFix"/>
<feColorMatrix in="SourceAlpha" type="matrix" values="0 0 0 0 0 0 0 0 0 0 0 0 0 0 0 0 0 0 127 0" result="hardAlpha"/>
<feOffset dx="-5" dy="-5"/>
<feGaussianBlur stdDeviation="4"/>
<feColorMatrix type="matrix" values="0 0 0 0 1 0 0 0 0 1 0 0 0 0 1 0 0 0 0.7 0"/>
<feBlend mode="normal" in2="BackgroundImageFix" result="effect1_dropShadow_26581_80"/>
<feColorMatrix in="SourceAlpha" type="matrix" values="0 0 0 0 0 0 0 0 0 0 0 0 0 0 0 0 0 0 127 0" result="hardAlpha"/>
<feOffset dx="7" dy="7"/>
<feGaussianBlur stdDeviation="6"/>
<feColorMatrix type="matrix" values="0 0 0 0 0.819608 0 0 0 0 0.85098 0 0 0 0 0.901961 0 0 0 0.7 0"/>
<feBlend mode="normal" in2="effect1_dropShadow_26581_80" result="effect2_dropShadow_26581_80"/>
<feBlend mode="normal" in="SourceGraphic" in2="effect2_dropShadow_26581_80" result="shape"/>
</filter>
<linearGradient id="paint0_linear_26581_80" x1="37.75" y1="13" x2="37.75" y2="43" gradientUnits="userSpaceOnUse">
<stop stop-color="#B7C9D8"/>
<stop offset="1" stop-color="#E3EAEF"/>
</linearGradient>
<radialGradient id="paint1_radial_26581_80" cx="0" cy="0" r="1" gradientUnits="userSpaceOnUse" gradientTransform="translate(46.5 26.9999) rotate(180) scale(15)">
<stop stop-color="#B8CAD9"/>
<stop offset="1" stop-color="#D3DEE7"/>
</radialGradient>
</defs>
</svg>
