<svg width="35" height="35" viewBox="0 0 35 35" fill="none" xmlns="http://www.w3.org/2000/svg">
<path d="M24.2136 14.6793C25.0063 13.8689 23.7732 12.618 22.9628 13.4285L16.6914 19.7005C15.6697 18.6786 14.6479 17.6568 13.6438 16.6526C12.8334 15.8421 11.5827 17.093 12.393 17.9035L16.0572 21.568C16.4096 21.9027 16.9733 21.9027 17.308 21.568L24.2136 14.6793Z" fill="#8B9EB0"/>
<path d="M17.5 35C7.84981 35 0 27.1494 0 17.5C0 7.8506 7.84981 0 17.5 0C27.1502 0 35 7.8506 35 17.5C35 27.1494 27.1502 35 17.5 35ZM17.5 1.7618C8.82223 1.7618 1.76163 8.82135 1.76163 17.5C1.76163 26.1786 8.82223 33.2382 17.5 33.2382C26.1778 33.2382 33.2384 26.1786 33.2384 17.5C33.2384 8.82135 26.1778 1.7618 17.5 1.7618Z" fill="#8B9EB0"/>
</svg>
